{"glyphs":{"0":{"ha":885,"x_min":69,"x_max":815,"o":"m 250 831 l 165 522 l 201 285 l 393 119 l 519 110 l 710 340 l 688 693 l 532 843 l 250 831 m 613 957 l 814 735 l 815 310 l 600 15 l 331 8 l 85 254 l 69 511 l 149 872 l 307 985 l 613 957 z "},"1":{"ha":424,"x_min":0,"x_max":340,"o":"m 239 969 l 340 928 l 315 4 l 210 -6 l 214 876 l 10 832 l 0 908 l 239 969 z "},"2":{"ha":717,"x_min":28,"x_max":689,"o":"m 331 999 l 636 868 l 550 467 l 221 104 l 689 113 l 689 8 l 43 -1 l 32 82 l 410 467 l 500 785 l 343 885 l 76 811 l 28 876 l 331 999 z "},"3":{"ha":736,"x_min":28,"x_max":708,"o":"m 640 954 l 665 901 l 397 610 l 626 553 l 708 150 l 358 -26 l 28 82 l 71 190 l 368 56 l 596 218 l 542 482 l 229 533 l 207 588 l 500 861 l 94 861 l 86 972 l 640 954 z "},"4":{"ha":765,"x_min":28,"x_max":738,"o":"m 139 376 l 489 349 l 504 843 l 139 376 m 613 969 l 599 356 l 735 376 l 738 271 l 601 246 l 617 -4 l 465 -15 l 494 268 l 43 276 l 28 360 l 486 986 l 613 969 z "},"5":{"ha":749,"x_min":42,"x_max":721,"o":"m 651 956 l 649 853 l 224 863 l 203 604 l 471 631 l 721 383 l 610 101 l 367 -19 l 42 54 l 63 172 l 335 74 l 561 158 l 581 461 l 417 526 l 168 481 l 110 547 l 138 986 l 651 956 z "},"6":{"ha":750,"x_min":69,"x_max":694,"o":"m 169 439 l 196 133 l 424 64 l 575 213 l 544 446 l 346 510 l 169 439 m 667 922 l 631 806 l 393 888 l 226 742 l 163 533 l 371 576 l 625 515 l 694 96 l 383 -26 l 69 97 l 69 475 l 114 793 l 371 975 l 667 922 z "},"7":{"ha":671,"x_min":28,"x_max":643,"o":"m 643 974 l 632 861 l 428 456 l 285 3 l 169 3 l 324 492 l 510 861 l 54 857 l 28 971 l 643 974 z "},"8":{"ha":793,"x_min":69,"x_max":724,"o":"m 308 483 l 196 329 l 203 85 l 475 68 l 619 174 l 617 357 l 433 482 l 308 483 m 274 897 l 186 789 l 229 657 l 404 576 l 582 736 l 504 906 l 274 897 m 608 931 l 678 690 l 518 524 l 696 436 l 724 164 l 458 -25 l 117 36 l 69 376 l 239 547 l 138 618 l 108 851 l 260 989 l 608 931 z "},"9":{"ha":744,"x_min":56,"x_max":675,"o":"m 576 488 l 532 789 l 349 896 l 176 796 l 142 506 l 411 388 l 576 488 m 56 35 l 97 153 l 329 54 l 503 189 l 579 394 l 382 322 l 56 443 l 75 869 l 394 986 l 661 813 l 675 444 l 610 128 l 343 -32 l 56 35 z "}," ":{"ha":444,"x_min":0,"x_max":0,"o":""},"C":{"ha":694,"x_min":63,"x_max":667,"o":"m 590 97 l 635 -8 l 300 -31 l 85 110 l 63 735 l 225 969 l 494 1024 l 667 907 l 494 679 l 453 711 l 538 872 l 463 939 l 279 896 l 204 701 l 204 163 l 332 86 l 590 97 z "},"c":{"ha":597,"x_min":72,"x_max":569,"o":"m 569 6 l 354 -6 l 83 83 l 72 426 l 190 664 l 386 731 l 536 644 l 461 449 l 418 471 l 461 600 l 407 644 l 407 644 l 244 568 l 169 396 l 190 147 l 354 83 l 536 114 l 569 6 z "},"D":{"ha":911,"x_min":42,"x_max":869,"o":"m 760 633 l 576 839 l 422 876 l 319 849 l 311 129 l 576 103 l 744 296 l 760 633 m 869 657 l 825 211 l 603 -11 l 250 14 l 42 10 l 46 53 l 196 88 l 201 885 l 104 922 l 110 972 l 247 979 l 592 953 l 869 657 z "},"d":{"ha":764,"x_min":42,"x_max":764,"o":"m 497 554 l 335 615 l 186 567 l 150 294 l 274 90 l 353 108 l 490 253 l 497 554 m 542 7 l 485 133 l 393 10 l 182 22 l 42 303 l 125 628 l 326 708 l 513 632 l 519 979 l 607 1083 l 685 1019 l 626 971 l 603 86 l 736 111 l 764 25 l 542 7 z "},"E":{"ha":869,"x_min":28,"x_max":800,"o":"m 800 -17 l 78 -7 l 71 40 l 210 65 l 163 893 l 39 936 l 28 985 l 775 967 l 776 788 l 706 790 l 685 878 l 308 879 l 282 844 l 289 546 l 717 517 l 704 456 l 293 447 l 289 332 l 360 96 l 711 82 l 728 194 l 799 203 l 800 -17 z "},"e":{"ha":701,"x_min":69,"x_max":632,"o":"m 189 372 l 514 424 l 475 606 l 382 640 l 200 579 l 188 367 l 189 372 m 471 699 l 582 601 l 622 363 l 188 293 l 263 72 l 426 76 l 621 135 l 632 25 l 240 -31 l 69 222 l 89 579 l 275 714 l 471 699 z "},"F":{"ha":760,"x_min":42,"x_max":729,"o":"m 683 771 l 629 771 l 606 861 l 267 872 l 278 557 l 615 546 l 615 490 l 267 444 l 300 71 l 300 71 l 414 61 l 436 -7 l 97 -7 l 88 38 l 164 49 l 143 883 l 51 918 l 42 963 l 267 963 l 267 963 l 729 972 l 683 771 z "},"f":{"ha":506,"x_min":56,"x_max":506,"o":"m 251 824 l 250 676 l 440 703 l 449 629 l 251 608 l 274 72 l 354 71 l 376 4 l 103 8 l 96 54 l 163 64 l 150 531 l 151 585 l 56 597 l 60 647 l 143 674 l 144 853 l 282 1001 l 506 965 l 482 889 l 319 914 l 251 824 z "},"Б":{"ha":804,"x_min":42,"x_max":763,"o":"m 653 213 l 658 414 l 513 525 l 304 482 l 283 465 l 274 122 l 306 96 l 504 104 l 653 213 m 763 200 l 574 -3 l 178 4 l 178 7 l 54 8 l 47 54 l 175 78 l 154 879 l 50 919 l 42 965 l 183 965 l 183 965 l 379 971 l 581 961 l 674 994 l 714 907 l 600 872 l 321 871 l 267 851 l 278 613 l 294 585 l 508 635 l 610 572 l 715 499 l 763 200 z "},"б":{"ha":696,"x_min":69,"x_max":668,"o":"m 178 456 l 190 96 l 394 57 l 544 274 l 453 519 l 326 540 l 178 456 m 633 968 l 533 890 l 269 790 l 179 681 l 171 551 l 340 632 l 539 576 l 668 265 l 492 -14 l 153 -7 l 75 60 l 69 658 l 179 824 l 456 939 l 551 1046 l 633 968 z "},"Г":{"ha":708,"x_min":42,"x_max":681,"o":"m 681 850 l 679 764 l 558 782 l 578 874 l 258 868 l 268 72 l 350 49 l 342 0 l 47 0 l 42 39 l 125 67 l 139 882 l 68 926 l 69 954 l 672 972 l 681 850 z "},"В":{"ha":836,"x_min":42,"x_max":767,"o":"m 656 226 l 650 357 l 519 476 l 325 439 l 304 422 l 296 122 l 326 96 l 526 104 l 656 226 m 289 851 l 299 568 l 317 540 l 514 585 l 631 688 l 543 874 l 343 871 l 289 851 m 767 213 l 596 -3 l 200 4 l 200 7 l 49 8 l 42 54 l 196 78 l 174 879 l 54 919 l 44 965 l 204 965 l 204 965 l 400 971 l 619 942 l 739 663 l 601 517 l 707 443 l 767 213 z "},"в":{"ha":692,"x_min":65,"x_max":679,"o":"m 679 97 l 456 -14 l 153 -4 l 65 64 l 75 568 l 97 656 l 333 711 l 511 656 l 568 513 l 488 400 l 568 400 l 679 97 m 333 633 l 165 568 l 175 388 l 256 388 l 400 388 l 478 499 l 444 590 l 333 633 m 558 108 l 478 332 l 175 288 l 175 108 l 354 64 l 558 108 z "},"г":{"ha":599,"x_min":42,"x_max":571,"o":"m 571 582 l 568 510 l 460 526 l 479 604 l 246 599 l 256 76 l 340 51 l 333 1 l 47 1 l 42 42 l 126 71 l 143 614 l 68 661 l 69 689 l 564 708 l 571 582 z "},"Д":{"ha":1004,"x_min":0,"x_max":935,"o":"m 442 96 l 665 90 l 683 867 l 615 867 l 386 846 l 381 564 l 313 151 l 285 92 l 442 96 m 935 47 l 897 -224 l 801 -236 l 832 -4 l 550 11 l 129 3 l 149 -204 l 72 -217 l 0 49 l 40 83 l 113 88 l 153 99 l 215 169 l 285 579 l 285 865 l 175 899 l 183 971 l 575 957 l 901 981 l 926 889 l 839 867 l 811 864 l 806 88 l 917 83 l 935 47 z "},"д":{"ha":847,"x_min":0,"x_max":778,"o":"m 367 89 l 553 83 l 568 607 l 511 608 l 321 590 l 315 428 l 260 133 l 236 85 l 367 89 m 778 47 l 746 -179 l 665 -187 l 690 4 l 457 17 l 107 11 l 122 -162 l 60 -174 l 0 49 l 33 78 l 93 82 l 126 90 l 179 149 l 236 442 l 236 606 l 146 633 l 151 694 l 478 682 l 747 703 l 769 625 l 697 607 l 672 606 l 669 81 l 763 78 l 778 47 z "},"Т":{"ha":793,"x_min":29,"x_max":772,"o":"m 772 971 l 751 818 l 675 839 l 675 893 l 444 893 l 476 63 l 544 42 l 544 -12 l 260 -3 l 260 32 l 357 63 l 346 893 l 269 893 l 129 872 l 129 818 l 40 807 l 29 971 l 236 971 l 772 971 z "},"т":{"ha":635,"x_min":28,"x_max":607,"o":"m 607 717 l 586 588 l 532 597 l 526 638 l 375 638 l 371 46 l 425 28 l 431 -14 l 193 -8 l 190 19 l 261 47 l 274 639 l 219 642 l 110 629 l 106 583 l 43 576 l 28 717 l 188 711 l 607 717 z "},"G":{"ha":818,"x_min":42,"x_max":749,"o":"m 461 354 l 688 326 l 683 3 l 208 -1 l 42 217 l 210 885 l 439 974 l 626 975 l 749 906 l 599 643 l 535 656 l 611 844 l 506 868 l 279 782 l 175 203 l 282 115 l 507 83 l 578 157 l 572 268 l 476 289 l 461 354 z "},"g":{"ha":707,"x_min":56,"x_max":665,"o":"m 164 469 l 268 326 l 468 293 l 554 457 l 503 585 l 306 615 l 210 571 l 164 469 m 200 260 l 172 104 l 461 89 l 557 79 l 621 -115 l 129 -239 l 56 -65 l 153 -87 l 160 -164 l 511 -44 l 490 -1 l 101 44 l 64 142 l 122 324 l 71 386 l 75 542 l 214 685 l 443 689 l 469 668 l 650 786 l 665 721 l 536 621 l 568 597 l 661 482 l 557 217 l 251 221 l 200 260 z "},"H":{"ha":986,"x_min":42,"x_max":944,"o":"m 844 81 l 936 50 l 928 8 l 614 10 l 611 54 l 717 81 l 719 454 l 268 454 l 247 81 l 357 46 l 367 -10 l 58 -4 l 54 35 l 160 74 l 136 900 l 42 935 l 47 975 l 357 975 l 367 924 l 271 897 l 268 579 l 728 525 l 742 888 l 651 918 l 639 956 l 932 975 l 944 944 l 849 886 l 844 81 z "},"h":{"ha":815,"x_min":69,"x_max":843,"o":"m 843 129 l 681 -37 l 564 14 l 549 499 l 453 606 l 256 424 l 256 64 l 357 33 l 365 -7 l 94 -8 l 86 33 l 139 54 l 160 876 l 69 956 l 174 1026 l 264 883 l 249 517 l 394 714 l 578 660 l 663 503 l 643 61 l 672 42 l 768 194 l 843 129 z "},"I":{"ha":392,"x_min":42,"x_max":350,"o":"m 335 28 l 338 -14 l 72 7 l 71 47 l 167 78 l 143 910 l 42 944 l 44 982 l 342 985 l 350 935 l 257 907 l 253 58 l 335 28 z "},"i":{"ha":386,"x_min":42,"x_max":358,"o":"m 358 -18 l 81 -21 l 74 19 l 147 49 l 153 636 l 51 671 l 42 706 l 331 722 l 344 694 l 260 647 l 254 50 l 353 21 l 358 -18 m 168 811 l 121 906 l 178 960 l 267 949 l 274 856 l 168 811 z "},"J":{"ha":653,"x_min":0,"x_max":611,"o":"m 529 901 l 514 149 l 453 -99 l 250 -210 l 57 -117 l 0 82 l 114 119 l 156 -94 l 238 -99 l 367 -7 l 408 207 l 400 907 l 293 943 l 297 985 l 604 986 l 611 935 l 529 901 z "},"j":{"ha":386,"x_min":-97,"x_max":358,"o":"m 267 636 l 256 11 l 188 -143 l -90 -249 l -97 -150 l 114 -89 l 154 90 l 147 640 l 74 664 l 64 700 l 347 715 l 358 686 l 267 636 m 203 804 l 129 878 l 154 971 l 243 971 l 283 913 l 203 804 z "},"K":{"ha":879,"x_min":42,"x_max":879,"o":"m 879 68 l 794 -43 l 613 65 l 513 376 l 396 468 l 276 431 l 272 68 l 367 49 l 375 -6 l 69 0 l 65 38 l 158 65 l 158 892 l 42 933 l 49 974 l 358 974 l 365 922 l 281 899 l 283 897 l 276 524 l 417 563 l 510 633 l 592 940 l 760 974 l 782 890 l 683 871 l 557 558 l 506 519 l 592 475 l 697 150 l 879 68 z "},"k":{"ha":703,"x_min":69,"x_max":703,"o":"m 703 50 l 646 -40 l 529 32 l 336 340 l 275 310 l 275 57 l 381 26 l 389 -12 l 113 -19 l 107 22 l 174 50 l 146 919 l 69 940 l 72 978 l 371 985 l 367 931 l 272 910 l 275 381 l 331 401 l 443 550 l 538 724 l 618 699 l 513 500 l 415 369 l 613 107 l 703 50 z "},"L":{"ha":665,"x_min":42,"x_max":638,"o":"m 629 10 l 79 -32 l 76 -3 l 153 44 l 129 903 l 42 932 l 47 969 l 351 971 l 358 921 l 276 896 l 274 60 l 528 114 l 510 207 l 636 222 l 638 135 l 629 10 z "},"l":{"ha":408,"x_min":69,"x_max":367,"o":"m 367 1 l 74 7 l 69 43 l 169 72 l 169 906 l 96 890 l 101 982 l 278 986 l 265 74 l 360 54 l 367 1 z "},"Ж":{"ha":1228,"x_min":0,"x_max":1228,"o":"m 1228 68 l 1144 -43 l 963 65 l 864 376 l 714 468 l 669 451 l 665 68 l 771 49 l 779 -6 l 468 0 l 464 38 l 567 65 l 567 453 l 519 468 l 367 376 l 265 65 l 85 -43 l 0 68 l 182 150 l 288 475 l 375 519 l 322 558 l 196 871 l 99 890 l 119 974 l 285 940 l 371 633 l 499 563 l 567 547 l 567 892 l 440 933 l 446 974 l 761 974 l 768 922 l 685 899 l 676 897 l 672 544 l 735 563 l 860 633 l 943 940 l 1108 974 l 1132 890 l 1032 871 l 907 558 l 856 519 l 943 475 l 1049 150 l 1228 68 z "},"ж":{"ha":985,"x_min":0,"x_max":985,"o":"m 985 76 l 921 -18 l 804 54 l 629 354 l 536 322 l 531 65 l 632 33 l 638 -7 l 385 -14 l 381 29 l 444 58 l 438 313 l 353 354 l 176 54 l 58 -35 l 0 76 l 93 132 l 274 383 l 172 503 l 64 661 l 169 703 l 240 551 l 358 417 l 433 399 l 428 647 l 354 668 l 358 706 l 635 711 l 626 660 l 539 635 l 536 394 l 622 417 l 731 560 l 813 703 l 918 663 l 800 511 l 708 383 l 888 132 l 985 76 z "},"З":{"ha":769,"x_min":42,"x_max":700,"o":"m 522 999 l 635 844 l 647 581 l 447 506 l 664 429 l 700 176 l 390 -26 l 42 99 l 63 342 l 163 349 l 136 163 l 374 82 l 582 240 l 508 415 l 282 485 l 306 543 l 528 603 l 535 794 l 354 918 l 188 849 l 196 718 l 79 751 l 122 899 l 349 1000 l 522 999 z "},"з":{"ha":615,"x_min":42,"x_max":546,"o":"m 408 717 l 499 583 l 511 414 l 381 344 l 521 275 l 546 92 l 376 -29 l 174 -26 l 42 63 l 50 201 l 131 208 l 117 121 l 193 54 l 363 69 l 453 149 l 399 265 l 243 326 l 263 379 l 417 431 l 418 572 l 272 647 l 168 592 l 175 472 l 82 503 l 115 635 l 267 719 l 408 717 z "},"И":{"ha":996,"x_min":42,"x_max":954,"o":"m 154 83 l 149 893 l 47 924 l 54 967 l 379 964 l 381 922 l 279 896 l 263 232 l 714 850 l 713 896 l 614 918 l 619 960 l 938 957 l 940 914 l 843 888 l 832 74 l 954 25 l 949 -11 l 643 -18 l 651 36 l 726 58 l 719 731 l 271 126 l 271 63 l 343 35 l 342 -3 l 42 -4 l 49 50 l 154 83 z "},"и":{"ha":808,"x_min":42,"x_max":767,"o":"m 138 64 l 131 653 l 47 679 l 53 715 l 326 713 l 328 678 l 243 656 l 224 161 l 567 640 l 567 656 l 482 674 l 489 707 l 754 704 l 756 669 l 675 649 l 665 56 l 767 17 l 764 -17 l 508 -21 l 514 25 l 576 44 l 569 539 l 232 71 l 235 49 l 297 22 l 294 -7 l 42 -10 l 50 36 l 138 64 z "},"К":{"ha":875,"x_min":42,"x_max":875,"o":"m 875 75 l 792 -36 l 611 72 l 513 383 l 393 475 l 274 438 l 271 75 l 367 56 l 374 1 l 68 7 l 63 44 l 156 72 l 156 899 l 42 940 l 43 981 l 356 981 l 364 929 l 279 906 l 282 904 l 275 531 l 414 569 l 507 640 l 592 947 l 757 981 l 781 897 l 679 878 l 556 565 l 503 526 l 589 482 l 696 157 l 875 75 z "},"к":{"ha":688,"x_min":42,"x_max":688,"o":"m 688 63 l 629 -28 l 513 43 l 325 347 l 222 315 l 219 69 l 324 38 l 332 0 l 57 -7 l 49 33 l 118 63 l 117 644 l 42 668 l 44 703 l 325 707 l 317 656 l 222 636 l 222 386 l 321 407 l 429 553 l 521 724 l 600 699 l 497 504 l 401 376 l 593 117 l 688 63 z "},"Л":{"ha":893,"x_min":0,"x_max":851,"o":"m 826 988 l 851 893 l 763 871 l 733 868 l 728 63 l 796 38 l 804 -14 l 511 7 l 507 44 l 606 65 l 625 872 l 536 872 l 392 850 l 356 564 l 279 144 l 217 13 l 24 -24 l 0 60 l 117 93 l 179 163 l 258 578 l 289 868 l 178 903 l 183 976 l 494 963 l 826 988 z "},"л":{"ha":793,"x_min":0,"x_max":751,"o":"m 729 707 l 751 633 l 672 614 l 646 613 l 640 67 l 717 47 l 724 -4 l 440 1 l 438 36 l 536 69 l 554 614 l 463 614 l 328 593 l 296 403 l 258 143 l 203 18 l 19 -12 l 0 63 l 110 93 l 168 158 l 207 421 l 235 613 l 131 642 l 136 697 l 424 685 l 729 707 z "},"М":{"ha":1133,"x_min":42,"x_max":1092,"o":"m 1092 33 l 1088 -6 l 790 -4 l 788 38 l 907 68 l 921 844 l 907 847 l 610 25 l 531 24 l 254 828 l 219 824 l 261 72 l 349 46 l 358 -7 l 71 -1 l 67 35 l 149 68 l 139 919 l 44 953 l 42 985 l 272 972 l 310 911 l 563 153 l 578 154 l 831 932 l 867 981 l 1088 978 l 1088 932 l 1022 919 l 994 65 l 1092 33 z "},"м":{"ha":972,"x_min":42,"x_max":931,"o":"m 931 33 l 925 -6 l 629 -4 l 628 38 l 747 69 l 763 572 l 747 574 l 535 69 l 457 68 l 251 557 l 218 551 l 260 72 l 350 44 l 354 -7 l 68 -1 l 64 33 l 147 67 l 138 644 l 44 678 l 42 711 l 271 701 l 308 636 l 488 214 l 500 218 l 672 660 l 706 707 l 925 706 l 925 661 l 863 644 l 838 64 l 931 33 z "},"M":{"ha":1131,"x_min":42,"x_max":1089,"o":"m 1089 35 l 1082 -6 l 788 -4 l 786 38 l 901 68 l 918 842 l 901 844 l 607 24 l 528 24 l 253 824 l 219 821 l 261 72 l 349 44 l 357 -7 l 69 -1 l 67 35 l 149 65 l 138 915 l 46 947 l 42 979 l 271 968 l 310 906 l 563 150 l 575 154 l 826 928 l 861 975 l 1082 975 l 1082 931 l 1018 915 l 990 65 l 1089 35 z "},"m":{"ha":1224,"x_min":56,"x_max":1265,"o":"m 1265 161 l 1092 0 l 978 21 l 965 575 l 881 628 l 681 488 l 692 431 l 706 76 l 775 43 l 768 10 l 514 3 l 519 39 l 589 72 l 581 542 l 524 631 l 399 571 l 264 438 l 276 75 l 364 46 l 357 -4 l 93 -1 l 89 38 l 151 63 l 161 608 l 56 679 l 117 782 l 235 688 l 243 546 l 425 690 l 639 683 l 664 553 l 885 690 l 1031 665 l 1082 553 l 1061 97 l 1099 94 l 1204 235 l 1265 161 z "},"N":{"ha":1018,"x_min":42,"x_max":976,"o":"m 939 49 l 946 -1 l 654 4 l 650 39 l 719 67 l 251 765 l 258 68 l 329 44 l 335 -7 l 44 -1 l 42 33 l 156 78 l 146 903 l 56 928 l 57 968 l 358 971 l 364 931 l 285 907 l 753 192 l 767 908 l 668 933 l 669 974 l 969 975 l 976 938 l 883 908 l 838 81 l 939 49 z "},"n":{"ha":886,"x_min":61,"x_max":904,"o":"m 904 99 l 672 -18 l 589 25 l 589 447 l 546 574 l 440 585 l 281 353 l 281 68 l 356 46 l 344 -7 l 92 4 l 81 35 l 154 68 l 154 574 l 61 626 l 133 722 l 261 585 l 281 457 l 419 679 l 599 669 l 704 479 l 682 108 l 704 89 l 831 183 l 904 99 z "},"P":{"ha":754,"x_min":42,"x_max":713,"o":"m 246 847 l 263 482 l 508 483 l 628 632 l 551 840 l 367 885 l 246 847 m 254 374 l 254 74 l 338 46 l 346 -4 l 57 3 l 54 36 l 153 75 l 143 886 l 96 924 l 42 931 l 49 982 l 164 986 l 228 953 l 356 964 l 653 904 l 713 563 l 539 393 l 254 374 z "},"O":{"ha":874,"x_min":69,"x_max":804,"o":"m 236 853 l 160 567 l 229 236 l 406 85 l 522 75 l 706 396 l 636 726 l 494 861 l 236 853 m 568 967 l 754 764 l 804 368 l 594 -10 l 347 -18 l 122 207 l 69 557 l 143 889 l 292 992 l 568 967 z "},"o":{"ha":693,"x_min":42,"x_max":651,"o":"m 260 638 l 138 479 l 164 206 l 318 60 l 422 61 l 553 317 l 494 557 l 401 626 l 260 638 m 449 731 l 596 594 l 651 276 l 456 -31 l 261 -39 l 57 207 l 42 524 l 215 731 l 449 731 z "},"p":{"ha":783,"x_min":42,"x_max":742,"o":"m 615 347 l 539 571 l 383 592 l 239 540 l 247 181 l 392 125 l 576 207 l 615 347 m 742 322 l 597 71 l 374 28 l 233 92 l 240 -221 l 333 -253 l 328 -307 l 47 -306 l 42 -264 l 128 -229 l 119 639 l 72 656 l 119 747 l 240 685 l 231 629 l 376 683 l 614 681 l 742 322 z "},"Q":{"ha":872,"x_min":69,"x_max":831,"o":"m 410 132 l 557 139 l 706 406 l 694 706 l 600 843 l 297 883 l 189 711 l 168 376 l 244 240 l 410 132 m 831 4 l 800 -97 l 626 -56 l 536 24 l 313 18 l 69 292 l 83 764 l 265 967 l 578 972 l 765 808 l 828 369 l 631 51 l 681 21 l 831 4 z "},"q":{"ha":750,"x_min":47,"x_max":736,"o":"m 736 -236 l 736 -292 l 457 -292 l 446 -247 l 535 -214 l 547 75 l 513 88 l 379 10 l 157 53 l 47 321 l 168 688 l 401 721 l 646 654 l 625 542 l 658 -214 l 736 -236 m 524 208 l 513 589 l 390 621 l 236 589 l 157 397 l 179 242 l 314 107 l 435 143 l 524 208 z "},"R":{"ha":990,"x_min":42,"x_max":990,"o":"m 708 664 l 658 843 l 454 879 l 311 857 l 335 549 l 585 532 l 708 664 m 990 171 l 818 17 l 710 35 l 636 361 l 506 457 l 325 431 l 329 86 l 417 57 l 428 4 l 129 8 l 126 46 l 208 78 l 192 813 l 142 867 l 42 878 l 46 953 l 160 956 l 218 932 l 253 963 l 631 957 l 806 796 l 781 564 l 660 472 l 763 374 l 772 124 l 803 113 l 903 263 l 990 171 z "},"r":{"ha":576,"x_min":69,"x_max":549,"o":"m 549 572 l 464 500 l 390 607 l 278 569 l 244 496 l 250 79 l 332 53 l 324 4 l 78 4 l 74 42 l 139 68 l 138 624 l 69 663 l 129 739 l 231 674 l 239 626 l 310 654 l 450 689 l 549 572 z "},"S":{"ha":803,"x_min":35,"x_max":768,"o":"m 568 978 l 656 918 l 694 972 l 768 914 l 638 757 l 585 806 l 518 892 l 310 858 l 200 747 l 285 590 l 644 496 l 729 392 l 704 121 l 417 -12 l 163 57 l 119 -12 l 35 7 l 119 193 l 190 172 l 410 101 l 626 188 l 585 403 l 158 490 l 79 781 l 226 953 l 568 978 z "},"Н":{"ha":971,"x_min":42,"x_max":929,"o":"m 831 82 l 919 51 l 914 11 l 601 14 l 599 54 l 704 83 l 707 449 l 264 449 l 243 83 l 351 47 l 360 -4 l 56 0 l 53 35 l 158 76 l 133 889 l 42 921 l 46 960 l 351 963 l 360 911 l 268 883 l 264 571 l 717 518 l 731 878 l 640 906 l 626 944 l 917 960 l 929 931 l 832 875 l 831 82 z "},"н":{"ha":764,"x_min":42,"x_max":722,"o":"m 636 68 l 714 42 l 707 7 l 451 8 l 450 46 l 538 69 l 540 294 l 222 294 l 203 69 l 299 39 l 304 -6 l 57 -3 l 53 29 l 142 65 l 122 639 l 42 668 l 47 703 l 299 703 l 304 661 l 226 638 l 222 401 l 546 356 l 558 632 l 482 657 l 472 688 l 708 703 l 722 675 l 638 629 l 636 68 z "},"П":{"ha":1006,"x_min":42,"x_max":964,"o":"m 843 865 l 854 76 l 925 40 l 943 4 l 640 -1 l 649 51 l 731 74 l 731 864 l 283 864 l 286 74 l 368 51 l 375 -1 l 74 4 l 69 40 l 161 76 l 171 865 l 133 865 l 42 878 l 68 971 l 122 957 l 893 957 l 943 971 l 964 876 l 881 865 l 843 865 z "},"п":{"ha":804,"x_min":42,"x_max":763,"o":"m 672 629 l 682 58 l 739 29 l 753 -1 l 504 -7 l 511 38 l 567 53 l 567 629 l 247 629 l 249 53 l 304 38 l 310 -7 l 64 -1 l 60 29 l 135 58 l 142 629 l 122 633 l 42 639 l 65 715 l 107 704 l 707 704 l 749 715 l 763 638 l 694 633 l 672 629 z "},"s":{"ha":657,"x_min":42,"x_max":615,"o":"m 344 725 l 500 661 l 556 715 l 615 674 l 510 532 l 460 579 l 232 633 l 158 547 l 254 413 l 533 343 l 572 107 l 389 -7 l 144 49 l 111 -8 l 42 4 l 89 150 l 372 83 l 460 149 l 426 265 l 129 367 l 49 532 l 115 686 l 344 725 z "},"T":{"ha":799,"x_min":29,"x_max":772,"o":"m 772 971 l 751 818 l 675 839 l 675 893 l 444 893 l 476 63 l 544 42 l 544 -12 l 260 -3 l 260 32 l 357 63 l 346 893 l 269 893 l 129 872 l 129 818 l 40 807 l 29 971 l 236 971 l 772 971 z "},"t":{"ha":521,"x_min":25,"x_max":492,"o":"m 492 43 l 264 0 l 156 107 l 156 250 l 156 608 l 89 597 l 35 585 l 25 651 l 124 683 l 143 683 l 143 814 l 124 858 l 242 858 l 253 738 l 253 693 l 447 717 l 447 608 l 253 618 l 253 161 l 318 88 l 492 119 l 492 43 z "},"U":{"ha":967,"x_min":42,"x_max":925,"o":"m 919 935 l 843 908 l 817 165 l 676 0 l 321 -14 l 158 161 l 126 853 l 119 911 l 42 932 l 43 972 l 336 975 l 340 935 l 249 907 l 253 239 l 340 99 l 628 108 l 713 229 l 701 917 l 636 938 l 638 975 l 925 985 l 919 935 z "},"u":{"ha":833,"x_min":42,"x_max":861,"o":"m 861 75 l 657 -22 l 579 -1 l 554 79 l 536 175 l 290 -21 l 146 29 l 104 193 l 100 621 l 42 646 l 46 679 l 294 685 l 288 635 l 215 606 l 215 214 l 267 90 l 357 140 l 525 233 l 547 619 l 486 647 l 490 685 l 710 685 l 717 638 l 644 610 l 640 94 l 661 60 l 800 181 l 861 75 z "},"V":{"ha":892,"x_min":0,"x_max":892,"o":"m 876 910 l 785 893 l 508 -12 l 389 1 l 71 924 l 0 942 l 4 982 l 306 985 l 314 946 l 224 919 l 450 101 l 476 101 l 669 917 l 590 960 l 600 996 l 892 960 l 876 910 z "},"v":{"ha":725,"x_min":0,"x_max":725,"o":"m 707 626 l 632 614 l 404 -18 l 272 -14 l 63 650 l 0 668 l 4 706 l 249 708 l 253 671 l 182 644 l 328 100 l 368 108 l 531 650 l 479 686 l 489 719 l 725 672 l 707 626 z "},"W":{"ha":1303,"x_min":0,"x_max":1303,"o":"m 1303 968 l 1299 928 l 1204 908 l 1194 904 l 968 -18 l 829 -18 l 661 757 l 657 796 l 653 796 l 647 758 l 494 -7 l 332 -7 l 94 913 l 0 939 l 0 979 l 311 979 l 311 939 l 225 913 l 225 913 l 393 111 l 418 107 l 604 936 l 704 936 l 894 90 l 915 90 l 1088 914 l 988 950 l 989 990 l 1303 968 z "},"w":{"ha":938,"x_min":0,"x_max":938,"o":"m 658 78 l 782 644 l 711 674 l 715 714 l 938 689 l 932 649 l 871 639 l 722 -28 l 592 -28 l 475 463 l 471 493 l 468 493 l 465 464 l 357 -19 l 229 -19 l 58 642 l 0 663 l 0 703 l 222 703 l 222 663 l 161 642 l 281 88 l 294 85 l 435 663 l 507 658 l 649 78 l 658 78 z "},"X":{"ha":932,"x_min":0,"x_max":932,"o":"m 932 -4 l 638 -12 l 632 25 l 697 54 l 524 365 l 463 463 l 242 54 l 310 31 l 306 -10 l 1 -8 l 0 35 l 100 63 l 413 536 l 151 919 l 65 946 l 67 986 l 368 988 l 375 950 l 300 924 l 467 613 l 492 572 l 692 914 l 622 951 l 628 986 l 921 965 l 911 913 l 807 892 l 533 511 l 533 508 l 811 76 l 921 49 l 932 -4 z "},"x":{"ha":650,"x_min":0,"x_max":650,"o":"m 650 -11 l 415 -11 l 411 25 l 456 42 l 346 246 l 307 325 l 172 51 l 247 25 l 242 -14 l 3 -11 l 0 28 l 46 40 l 258 392 l 75 642 l 7 664 l 8 703 l 250 703 l 254 668 l 194 644 l 325 432 l 447 651 l 403 676 l 411 708 l 644 685 l 633 640 l 546 618 l 381 347 l 578 58 l 644 35 l 650 -11 z "},"У":{"ha":940,"x_min":0,"x_max":940,"o":"m 265 -32 l 174 -19 l 169 115 l 357 61 l 429 186 l 82 897 l 0 931 l 4 969 l 304 974 l 294 918 l 240 901 l 485 304 l 707 910 l 608 938 l 610 982 l 935 983 l 940 940 l 818 901 l 522 160 l 444 4 l 265 -32 z "},"у":{"ha":738,"x_min":0,"x_max":738,"o":"m 665 646 l 426 -218 l 286 -328 l 132 -292 l 92 -282 l 99 -118 l 144 1 l 228 -33 l 160 -132 l 174 -204 l 274 -237 l 343 -197 l 371 -71 l 392 53 l 293 31 l 81 617 l 18 622 l 0 683 l 185 699 l 247 407 l 400 86 l 551 649 l 486 669 l 490 707 l 733 710 l 738 675 l 665 646 z "},"Ф":{"ha":1157,"x_min":42,"x_max":1115,"o":"m 636 300 l 897 268 l 1022 464 l 943 744 l 746 790 l 618 753 l 636 300 m 515 299 l 510 763 l 408 790 l 213 744 l 131 464 l 257 268 l 515 299 m 626 183 l 626 46 l 715 18 l 721 -35 l 419 -31 l 414 7 l 519 46 l 517 185 l 225 172 l 42 389 l 104 814 l 421 875 l 519 864 l 518 972 l 450 988 l 446 1031 l 679 1036 l 678 993 l 611 972 l 614 864 l 733 875 l 1050 814 l 1115 389 l 926 172 l 626 183 z "},"ф":{"ha":1014,"x_min":69,"x_max":944,"o":"m 558 121 l 749 90 l 854 325 l 793 575 l 658 628 l 543 593 l 558 121 m 451 119 l 444 600 l 356 628 l 222 574 l 160 325 l 263 90 l 451 119 m 551 19 l 551 -260 l 628 -285 l 639 -332 l 365 -328 l 360 -296 l 456 -258 l 453 19 l 232 4 l 69 260 l 125 647 l 367 703 l 456 692 l 444 919 l 414 931 l 410 968 l 579 972 l 578 935 l 549 926 l 540 692 l 649 703 l 889 647 l 944 260 l 779 4 l 551 19 z "},"Ц":{"ha":1044,"x_min":42,"x_max":1003,"o":"m 982 -8 l 929 -203 l 850 -206 l 867 6 l 107 7 l 108 75 l 143 97 l 135 897 l 42 932 l 47 971 l 350 975 l 343 921 l 275 899 l 272 97 l 754 97 l 754 899 l 686 921 l 679 975 l 982 971 l 964 932 l 893 897 l 882 97 l 919 96 l 1003 90 l 982 -8 z "},"ц":{"ha":815,"x_min":42,"x_max":774,"o":"m 683 638 l 674 71 l 743 71 l 774 51 l 679 -164 l 619 -167 l 650 -1 l 99 0 l 99 53 l 125 71 l 114 638 l 42 665 l 44 697 l 290 701 l 283 658 l 226 639 l 225 74 l 569 74 l 569 639 l 515 658 l 508 701 l 754 697 l 739 665 l 683 638 z "},"Ч":{"ha":910,"x_min":28,"x_max":868,"o":"m 769 60 l 856 31 l 850 -11 l 544 -8 l 542 33 l 644 61 l 649 431 l 250 364 l 135 442 l 118 899 l 28 933 l 32 969 l 335 969 l 342 922 l 250 894 l 238 515 l 344 468 l 656 500 l 669 885 l 579 917 l 569 953 l 851 969 l 868 938 l 769 883 l 769 60 z "},"ч":{"ha":699,"x_min":42,"x_max":657,"o":"m 582 35 l 650 15 l 646 -14 l 419 -11 l 419 21 l 493 39 l 496 288 l 207 239 l 121 296 l 107 656 l 42 676 l 43 707 l 265 708 l 272 669 l 207 653 l 196 350 l 272 314 l 500 342 l 511 646 l 446 668 l 438 693 l 646 707 l 657 683 l 586 644 l 582 35 z "},"Ш":{"ha":1249,"x_min":42,"x_max":1207,"o":"m 1188 74 l 1194 10 l 1161 4 l 758 4 l 715 4 l 89 6 l 88 68 l 125 78 l 115 906 l 42 935 l 44 967 l 290 971 l 283 928 l 226 907 l 225 79 l 510 69 l 578 79 l 578 907 l 521 928 l 515 971 l 760 967 l 746 935 l 689 906 l 681 78 l 747 74 l 1024 79 l 1024 907 l 968 928 l 964 971 l 1207 967 l 1194 935 l 1136 906 l 1128 78 l 1188 74 z "},"ш":{"ha":999,"x_min":42,"x_max":960,"o":"m 938 72 l 949 7 l 928 -4 l 611 -4 l 576 -4 l 75 7 l 75 63 l 108 72 l 96 642 l 42 674 l 42 696 l 250 696 l 250 663 l 206 653 l 206 72 l 403 72 l 457 72 l 457 653 l 414 663 l 403 696 l 621 696 l 611 674 l 554 642 l 544 72 l 611 72 l 796 72 l 796 653 l 751 663 l 751 696 l 960 696 l 949 674 l 906 642 l 896 72 l 938 72 z "},"Й":{"ha":989,"x_min":42,"x_max":947,"o":"m 468 1121 l 503 1094 l 644 1263 l 736 1178 l 514 1053 l 468 1053 l 246 1201 l 315 1250 l 468 1121 m 153 88 l 147 890 l 50 921 l 56 963 l 376 963 l 378 919 l 279 893 l 260 235 l 710 847 l 708 893 l 611 915 l 615 957 l 931 954 l 932 913 l 836 885 l 825 76 l 947 31 l 943 -7 l 640 -11 l 646 40 l 722 65 l 714 728 l 272 129 l 272 67 l 343 39 l 340 0 l 42 -1 l 51 51 l 153 88 z "},"й":{"ha":804,"x_min":42,"x_max":763,"o":"m 356 888 l 388 871 l 542 999 l 633 915 l 404 818 l 356 818 l 144 940 l 214 986 l 356 888 m 136 68 l 129 651 l 47 678 l 53 714 l 324 714 l 325 676 l 240 654 l 224 165 l 561 639 l 561 654 l 478 674 l 483 707 l 749 707 l 749 671 l 669 650 l 661 61 l 763 22 l 758 -8 l 504 -12 l 510 31 l 572 50 l 565 539 l 231 75 l 235 53 l 294 31 l 292 -3 l 42 -3 l 47 40 l 136 68 z "},"Y":{"ha":875,"x_min":0,"x_max":875,"o":"m 550 54 l 557 3 l 265 8 l 263 42 l 361 81 l 357 426 l 75 907 l 0 936 l 4 972 l 296 978 l 286 926 l 238 910 l 418 540 l 656 919 l 567 943 l 569 985 l 868 986 l 875 946 l 761 910 l 449 436 l 457 83 l 550 54 z "},"y":{"ha":707,"x_min":0,"x_max":707,"o":"m 631 644 l 336 -204 l 176 -272 l 3 -182 l 40 -90 l 186 -182 l 263 -161 l 303 -47 l 339 75 l 267 36 l 79 617 l 17 622 l 0 681 l 182 697 l 244 410 l 350 106 l 522 650 l 458 669 l 460 706 l 699 707 l 707 672 l 631 644 z "},"Z":{"ha":778,"x_min":42,"x_max":736,"o":"m 92 993 l 165 968 l 714 978 l 725 886 l 193 131 l 224 104 l 588 129 l 599 204 l 713 213 l 736 18 l 60 3 l 42 104 l 574 865 l 197 869 l 174 803 l 69 825 l 92 993 z "},"z":{"ha":669,"x_min":56,"x_max":614,"o":"m 169 699 l 588 714 l 592 606 l 188 85 l 483 114 l 499 197 l 613 206 l 614 4 l 56 14 l 67 103 l 460 611 l 179 628 l 153 569 l 101 579 l 104 714 l 169 699 z "},"Щ":{"ha":1292,"x_min":42,"x_max":1250,"o":"m 1235 54 l 1250 -22 l 1197 -221 l 1131 -226 l 1146 -11 l 765 -7 l 722 -7 l 89 -3 l 89 57 l 126 68 l 119 915 l 42 946 l 44 975 l 292 978 l 288 936 l 232 918 l 231 69 l 517 63 l 585 69 l 585 918 l 526 936 l 521 978 l 768 975 l 754 946 l 699 915 l 688 68 l 757 64 l 1035 69 l 1035 918 l 981 936 l 972 978 l 1222 975 l 1206 946 l 1147 915 l 1139 68 l 1235 54 z "},"щ":{"ha":1053,"x_min":42,"x_max":1011,"o":"m 1011 -1 l 967 -154 l 924 -154 l 935 8 l 85 8 l 85 64 l 107 75 l 107 642 l 42 674 l 42 694 l 247 694 l 247 663 l 204 651 l 204 75 l 401 75 l 457 75 l 457 651 l 413 663 l 401 694 l 618 694 l 607 674 l 553 642 l 553 75 l 607 75 l 803 75 l 803 651 l 749 663 l 749 694 l 956 694 l 946 674 l 901 642 l 890 75 l 1000 53 l 1011 -1 z "},"Ъ":{"ha":917,"x_min":-42,"x_max":875,"o":"m 513 90 l 707 139 l 786 354 l 663 508 l 388 511 l 388 128 l 513 90 m 694 604 l 875 429 l 814 72 l 501 8 l 368 19 l 301 -15 l 182 -12 l 175 42 l 231 49 l 281 89 l 274 888 l 168 879 l -42 901 l -42 994 l 171 953 l 454 975 l 465 917 l 379 889 l 379 625 l 694 604 z "},"ъ":{"ha":838,"x_min":0,"x_max":810,"o":"m 650 324 l 490 408 l 342 338 l 340 144 l 483 97 l 629 100 l 699 218 l 650 324 m 689 8 l 476 4 l 335 56 l 342 3 l 222 -60 l 176 32 l 239 44 l 231 621 l 163 624 l 0 628 l 3 707 l 164 678 l 411 697 l 418 643 l 326 615 l 332 426 l 468 486 l 664 443 l 810 244 l 689 8 z "},"Ы":{"ha":1132,"x_min":42,"x_max":1090,"o":"m 1076 42 l 1079 -3 l 806 19 l 803 64 l 903 92 l 878 894 l 775 933 l 778 971 l 1083 974 l 1090 921 l 996 894 l 992 75 l 1076 42 m 385 94 l 611 139 l 685 381 l 544 574 l 254 511 l 261 133 l 385 94 m 546 671 l 774 456 l 717 72 l 372 11 l 240 24 l 172 -12 l 54 -7 l 46 47 l 103 56 l 153 93 l 146 892 l 42 931 l 46 968 l 347 972 l 339 922 l 251 894 l 246 624 l 546 671 z "},"ы":{"ha":953,"x_min":42,"x_max":911,"o":"m 899 32 l 903 -6 l 664 14 l 663 51 l 749 76 l 729 657 l 640 689 l 644 724 l 904 725 l 911 681 l 832 657 l 825 61 l 899 32 m 338 67 l 531 101 l 556 268 l 429 363 l 224 274 l 231 96 l 338 67 m 429 446 l 633 332 l 621 46 l 326 -6 l 211 4 l 154 -26 l 50 -22 l 44 25 l 92 32 l 135 67 l 131 644 l 42 678 l 44 710 l 304 714 l 297 669 l 222 644 l 217 372 l 429 446 z "},"Ь":{"ha":786,"x_min":42,"x_max":744,"o":"m 385 90 l 578 139 l 657 354 l 532 508 l 258 511 l 257 128 l 385 90 m 561 604 l 744 429 l 682 72 l 371 8 l 239 19 l 171 -15 l 51 -12 l 44 42 l 101 49 l 150 89 l 143 888 l 56 896 l 42 968 l 324 964 l 336 917 l 250 889 l 250 625 l 561 604 z "},"ь":{"ha":725,"x_min":42,"x_max":697,"o":"m 536 331 l 375 415 l 224 343 l 221 147 l 368 99 l 515 103 l 588 222 l 536 331 m 578 10 l 363 6 l 215 58 l 224 4 l 103 -60 l 56 33 l 118 46 l 110 632 l 60 636 l 42 689 l 294 708 l 303 654 l 207 626 l 211 433 l 350 494 l 549 451 l 697 249 l 578 10 z "},"Э":{"ha":838,"x_min":56,"x_max":768,"o":"m 768 454 l 728 136 l 411 -25 l 56 104 l 75 350 l 181 356 l 150 168 l 394 82 l 610 200 l 631 400 l 640 478 l 483 471 l 288 481 l 285 581 l 489 551 l 650 576 l 651 590 l 583 796 l 351 901 l 181 829 l 189 693 l 72 731 l 114 876 l 343 982 l 521 978 l 686 847 l 756 608 l 768 454 z "},"э":{"ha":681,"x_min":56,"x_max":611,"o":"m 611 319 l 581 119 l 354 -18 l 56 89 l 71 299 l 161 304 l 135 144 l 340 74 l 478 174 l 494 275 l 501 339 l 369 333 l 250 342 l 247 426 l 375 401 l 513 424 l 513 435 l 457 568 l 304 657 l 161 596 l 169 483 l 68 510 l 106 638 l 297 725 l 453 685 l 543 611 l 601 451 l 611 319 z "},"Ю":{"ha":1303,"x_min":42,"x_max":1233,"o":"m 1133 376 l 1065 715 l 921 853 l 619 843 l 521 540 l 597 206 l 786 99 l 943 89 l 1133 376 m 1233 350 l 1015 1 l 726 -7 l 489 175 l 442 439 l 256 446 l 253 60 l 338 25 l 340 -12 l 72 8 l 71 49 l 167 78 l 143 913 l 42 947 l 49 985 l 343 988 l 351 936 l 260 911 l 256 518 l 428 531 l 428 532 l 526 881 l 675 985 l 994 960 l 1182 751 l 1233 350 z "},"ю":{"ha":960,"x_min":43,"x_max":890,"o":"m 890 278 l 790 28 l 521 -22 l 382 106 l 332 296 l 221 307 l 221 57 l 292 36 l 292 8 l 61 8 l 61 36 l 131 57 l 121 646 l 43 676 l 43 706 l 272 706 l 292 667 l 213 646 l 221 365 l 321 376 l 321 376 l 421 626 l 542 717 l 721 696 l 850 507 l 890 278 m 811 296 l 750 476 l 661 607 l 501 596 l 421 376 l 471 146 l 571 68 l 732 118 l 811 296 z "},"Я":{"ha":954,"x_min":-54,"x_max":957,"o":"m 29 200 l 126 106 l 200 83 l 317 221 l 413 392 l 189 542 l 200 818 l 360 978 l 733 957 l 775 925 l 829 957 l 946 946 l 957 872 l 849 861 l 796 807 l 786 63 l 869 31 l 861 -3 l 563 -12 l 572 40 l 658 72 l 668 371 l 563 382 l 444 211 l 264 -3 l 114 8 l -54 106 l 29 200 m 444 467 l 658 489 l 681 850 l 531 882 l 350 850 l 285 626 l 444 467 z "},"я":{"ha":751,"x_min":-1,"x_max":714,"o":"m 69 156 l 103 74 l 160 64 l 240 132 l 322 236 l 138 363 l 138 593 l 299 719 l 588 707 l 610 674 l 656 696 l 714 696 l 714 628 l 667 628 l 632 581 l 619 51 l 690 18 l 690 -6 l 449 -17 l 449 31 l 517 51 l 529 214 l 436 225 l 344 121 l 218 -6 l 92 -6 l -1 88 l 69 156 m 368 306 l 517 317 l 540 615 l 414 639 l 265 606 l 207 431 l 368 306 z "},"b":{"ha":749,"x_min":42,"x_max":707,"o":"m 246 533 l 240 126 l 422 83 l 583 300 l 546 546 l 410 590 l 246 533 m 150 1069 l 207 954 l 240 629 l 424 679 l 633 600 l 707 292 l 519 11 l 203 24 l 125 90 l 118 892 l 42 989 l 150 1069 z "},":":{"ha":283,"x_min":42,"x_max":242,"o":"m 200 669 l 242 574 l 164 474 l 42 550 l 78 664 l 200 669 m 119 163 l 226 135 l 229 8 l 108 -18 l 50 86 l 119 163 z "},";":{"ha":301,"x_min":42,"x_max":260,"o":"m 200 669 l 243 574 l 165 474 l 42 550 l 79 664 l 200 669 m 174 167 l 260 94 l 213 -31 l 113 -156 l 67 -144 l 163 -7 l 96 6 l 78 125 l 174 167 z "},"”":{"ha":525,"x_min":42,"x_max":483,"o":"m 147 994 l 233 924 l 186 797 l 86 674 l 42 683 l 136 821 l 69 833 l 51 953 l 147 994 m 396 994 l 483 924 l 435 797 l 335 674 l 289 683 l 385 821 l 318 833 l 300 953 l 396 994 z "},"“":{"ha":493,"x_min":42,"x_max":451,"o":"m 133 669 l 42 715 l 56 871 l 174 1000 l 219 990 l 124 853 l 189 840 l 210 735 l 133 669 m 367 669 l 274 715 l 288 871 l 407 1000 l 451 990 l 356 853 l 422 840 l 442 735 l 367 669 z "},"’":{"ha":275,"x_min":42,"x_max":233,"o":"m 147 994 l 233 924 l 188 797 l 86 674 l 42 683 l 136 821 l 71 833 l 53 953 l 147 994 z "},"‘":{"ha":261,"x_min":42,"x_max":219,"o":"m 135 656 l 42 701 l 56 857 l 175 986 l 219 976 l 125 839 l 190 826 l 211 721 l 135 656 z "},"«":{"ha":603,"x_min":14,"x_max":589,"o":"m 346 629 l 139 340 l 360 58 l 318 26 l 14 331 l 17 385 l 306 665 l 346 629 m 563 633 l 390 347 l 589 57 l 544 31 l 247 325 l 254 371 l 533 658 l 563 633 z "},"»":{"ha":603,"x_min":14,"x_max":589,"o":"m 297 665 l 586 385 l 589 331 l 285 26 l 243 58 l 464 340 l 257 629 l 297 665 m 69 658 l 349 371 l 356 325 l 58 31 l 14 57 l 213 347 l 40 633 l 69 658 z "},"·":{"ha":457,"x_min":139,"x_max":318,"o":"m 208 551 l 315 524 l 318 397 l 197 371 l 139 475 l 208 551 z "},"~":{"ha":729,"x_min":0,"x_max":729,"o":"m 0 374 l 79 556 l 239 596 l 511 449 l 604 463 l 622 586 l 729 592 l 686 443 l 589 360 l 486 347 l 224 508 l 136 493 l 125 358 l 0 374 z "},"™":{"ha":944,"x_min":42,"x_max":875,"o":"m 875 571 l 874 544 l 718 544 l 717 574 l 768 588 l 771 901 l 763 903 l 650 557 l 615 557 l 504 872 l 496 871 l 506 589 l 544 576 l 547 544 l 408 546 l 407 571 l 442 588 l 439 921 l 397 933 l 396 960 l 528 956 l 544 931 l 628 678 l 633 678 l 714 936 l 729 956 l 874 957 l 874 926 l 844 921 l 832 588 l 875 571 m 357 957 l 344 867 l 317 874 l 313 896 l 239 896 l 246 583 l 276 574 l 288 542 l 131 544 l 133 569 l 172 583 l 168 897 l 138 897 l 88 890 l 85 867 l 49 864 l 42 957 l 131 956 l 357 957 z "},"©":{"ha":1076,"x_min":42,"x_max":1035,"o":"m 290 869 l 147 585 l 144 307 l 410 86 l 725 90 l 956 333 l 943 694 l 697 894 l 290 869 m 764 956 l 1032 729 l 1035 301 l 747 4 l 390 -3 l 64 243 l 42 501 l 150 869 l 361 982 l 764 956 m 757 182 l 565 169 l 322 246 l 314 550 l 425 764 l 594 825 l 729 744 l 658 572 l 619 585 l 651 690 l 601 729 l 489 703 l 425 531 l 418 319 l 572 256 l 725 292 l 757 182 z "},"®":{"ha":1133,"x_min":69,"x_max":1064,"o":"m 322 869 l 175 585 l 172 307 l 440 86 l 753 90 l 986 333 l 974 694 l 725 894 l 322 869 m 792 956 l 1060 729 l 1064 301 l 775 4 l 418 -3 l 92 243 l 69 501 l 178 869 l 389 982 l 792 956 m 699 604 l 667 726 l 529 749 l 514 732 l 529 531 l 607 493 l 699 604 m 814 253 l 718 206 l 642 388 l 571 429 l 526 438 l 529 218 l 588 199 l 593 167 l 386 174 l 383 199 l 438 218 l 428 710 l 411 815 l 453 815 l 661 815 l 779 697 l 760 543 l 676 479 l 743 413 l 814 253 z "},"ª":{"ha":450,"x_min":42,"x_max":408,"o":"m 196 750 l 115 697 l 108 626 l 140 613 q 169 614 156 613 q 190 615 181 615 q 200 618 200 615 q 210 632 204 625 q 219 647 214 639 q 232 664 225 656 q 264 710 246 683 l 258 761 l 196 750 m 149 989 l 335 946 l 338 611 l 408 606 l 408 568 l 307 558 l 274 631 l 231 563 l 92 538 l 42 599 l 44 722 l 183 811 l 256 824 l 264 913 l 151 926 l 101 860 l 58 908 l 63 931 l 149 989 z "},"@":{"ha":1164,"x_min":42,"x_max":1122,"o":"m 588 281 q 604 303 588 282 q 642 350 621 325 l 697 417 l 688 494 l 583 482 l 464 408 l 460 281 l 507 256 q 547 265 529 260 q 575 274 563 269 q 588 281 588 278 m 1064 358 l 882 213 l 740 199 l 692 300 l 636 183 l 439 169 l 350 251 l 354 438 l 564 575 l 686 593 l 678 689 l 517 711 l 449 625 l 379 697 l 388 726 l 517 807 l 778 744 l 803 293 l 868 264 l 1015 429 l 1025 654 l 876 849 l 583 929 l 300 815 l 131 536 l 240 207 l 515 64 l 749 115 l 783 17 l 439 -24 l 164 153 l 42 533 l 231 881 l 489 996 l 711 1007 l 944 892 l 1082 717 l 1122 482 l 1064 358 z "},"¹":{"ha":297,"x_min":42,"x_max":228,"o":"m 157 975 l 225 958 l 228 506 l 144 496 l 144 901 l 58 864 l 42 946 l 157 975 z "},"³":{"ha":414,"x_min":42,"x_max":372,"o":"m 315 963 l 325 938 l 206 810 l 329 790 l 372 597 l 213 485 l 42 574 l 75 649 l 194 564 l 293 636 l 271 753 l 129 758 l 121 800 l 207 903 l 71 910 l 67 969 l 315 963 z "},"²":{"ha":375,"x_min":42,"x_max":333,"o":"m 174 982 l 322 896 l 283 721 l 143 601 l 333 601 l 329 538 l 47 533 l 42 601 l 206 769 l 247 874 l 179 900 l 61 867 l 42 931 l 174 982 z "},"\\":{"ha":465,"x_min":0,"x_max":465,"o":"m 0 982 l 88 1004 l 465 -29 l 369 -37 l 94 757 l 0 982 z "},"|":{"ha":289,"x_min":83,"x_max":206,"o":"m 192 989 l 206 411 l 189 -333 l 100 -343 l 111 414 l 83 1011 l 192 989 z "},"{":{"ha":407,"x_min":69,"x_max":407,"o":"m 399 1128 l 388 1033 l 300 1054 l 225 978 l 290 544 l 175 450 l 257 371 l 231 -186 l 388 -183 l 407 -267 l 164 -278 l 138 -206 l 164 318 l 69 442 l 69 481 l 157 558 l 164 908 l 146 1029 l 244 1124 l 399 1128 z "},"}":{"ha":401,"x_min":0,"x_max":332,"o":"m 8 -278 l 14 -183 l 143 -204 l 181 -128 l 107 349 l 224 443 l 136 565 l 157 1047 l 14 1044 l 0 1126 l 210 1135 l 268 1065 l 235 574 l 332 451 l 332 411 l 239 336 l 243 -60 l 260 -178 l 224 -274 l 8 -278 z "},"[":{"ha":386,"x_min":83,"x_max":386,"o":"m 378 1022 l 194 1031 l 183 375 l 217 -201 l 378 -201 l 386 -283 l 332 -283 l 83 -283 l 100 369 l 97 1122 l 208 1117 l 378 1139 l 378 1022 z "},"]":{"ha":368,"x_min":0,"x_max":285,"o":"m 274 1110 l 285 1068 l 256 513 l 274 -278 l 146 -264 l 13 -264 l 13 -182 l 196 -200 l 165 500 l 147 1053 l 13 1038 l 0 1133 l 274 1110 z "},"¢":{"ha":681,"x_min":69,"x_max":653,"o":"m 633 3 l 386 -15 l 131 56 l 69 401 l 224 665 l 417 732 l 653 646 l 572 447 l 529 463 l 572 601 l 432 643 l 432 643 l 278 564 l 193 382 l 254 119 l 400 100 l 601 106 l 633 3 m 449 792 l 438 669 l 442 143 l 444 -162 l 344 -162 l 371 174 l 365 607 l 356 799 l 449 792 z "},"£":{"ha":676,"x_min":42,"x_max":635,"o":"m 635 6 l 42 32 l 42 93 l 97 99 l 231 332 l 207 440 l 63 435 l 65 510 l 189 517 l 172 592 l 196 847 l 403 963 l 611 900 l 581 786 l 428 861 l 310 814 l 306 540 l 307 522 l 390 528 l 506 540 l 500 444 l 360 443 l 319 442 l 342 300 l 183 114 l 613 125 l 635 6 z "},"¤":{"ha":786,"x_min":69,"x_max":717,"o":"m 547 379 l 546 531 l 435 625 l 276 615 l 213 485 l 222 375 l 326 281 l 451 275 l 547 379 m 599 319 l 706 201 l 642 133 l 614 182 l 547 263 l 485 189 l 301 185 l 238 239 q 208 207 225 225 q 175 172 190 189 q 139 133 157 153 l 69 197 l 174 293 l 136 325 l 124 446 l 167 611 l 79 690 l 129 767 l 219 682 l 288 721 l 494 707 l 544 658 l 649 772 l 717 708 l 601 603 l 631 578 l 632 360 l 599 319 z "},"¥":{"ha":882,"x_min":0,"x_max":882,"o":"m 763 899 l 526 500 l 706 511 l 701 432 l 475 413 l 475 360 l 693 354 l 693 261 l 478 267 l 478 78 l 575 47 l 583 -7 l 276 -1 l 271 36 l 375 76 l 379 268 l 156 278 l 143 351 l 379 360 l 379 403 l 374 414 l 147 426 l 150 504 l 326 493 l 83 908 l 0 922 l 3 960 l 310 965 l 303 911 l 249 893 l 443 522 l 651 908 l 558 933 l 560 976 l 876 978 l 882 936 l 763 899 z "},"º":{"ha":508,"x_min":69,"x_max":439,"o":"m 183 901 l 147 829 l 135 718 l 231 633 l 356 692 l 371 849 l 292 913 l 183 901 m 349 975 l 439 875 l 422 643 l 229 553 l 89 651 l 69 836 l 150 968 l 349 975 z "},"°":{"ha":454,"x_min":42,"x_max":413,"o":"m 158 901 l 107 753 l 182 669 l 315 710 l 346 849 l 265 913 l 158 901 m 324 975 l 413 875 l 396 676 l 201 588 l 61 686 l 42 836 l 125 968 l 324 975 z "},"<":{"ha":697,"x_min":14,"x_max":669,"o":"m 626 631 l 603 594 l 151 358 l 669 83 l 633 -6 l 14 319 l 14 378 l 86 428 l 621 703 l 626 631 z "},"Œ":{"ha":1297,"x_min":69,"x_max":1228,"o":"m 451 69 l 640 94 l 660 492 l 642 857 l 557 883 l 476 908 l 286 867 l 204 674 l 222 138 l 451 69 m 626 18 l 403 -60 l 85 71 l 69 704 l 236 950 l 500 1001 l 567 979 l 1204 928 l 1204 756 l 1138 757 l 1118 840 l 781 842 l 757 810 l 764 522 l 1147 497 l 1135 438 l 767 429 l 756 129 l 832 92 l 1143 79 l 1157 186 l 1226 193 l 1228 -15 l 626 18 z "},"œ":{"ha":1154,"x_min":42,"x_max":1085,"o":"m 638 375 l 972 435 l 932 607 l 844 640 l 650 579 l 638 375 m 556 353 l 504 578 l 392 663 l 253 674 l 136 518 l 160 226 l 311 83 l 410 88 l 556 353 m 708 -6 l 586 240 l 443 -3 l 256 -10 l 56 228 l 42 535 l 207 738 l 435 738 l 581 601 l 740 713 l 931 696 l 1036 606 l 1074 374 l 657 307 l 731 94 l 888 97 l 1074 154 l 1085 49 l 708 -6 z "},"¸":{"ha":268,"x_min":0,"x_max":268,"o":"m 210 28 l 176 -56 l 268 -99 l 225 -224 l 121 -276 l 0 -251 l 32 -178 l 89 -215 l 158 -174 l 157 -112 l 61 -79 l 154 39 l 210 28 z "},"‹":{"ha":610,"x_min":14,"x_max":568,"o":"m 542 565 l 444 506 l 167 351 l 311 272 l 568 138 l 549 36 l 249 200 l 14 336 l 22 382 l 267 497 l 553 664 l 542 565 z "},"›":{"ha":585,"x_min":42,"x_max":571,"o":"m 128 606 l 571 382 l 565 313 l 68 51 l 42 129 l 221 222 l 457 351 l 289 440 l 64 556 l 68 646 l 128 606 z "},"#":{"ha":911,"x_min":14,"x_max":897,"o":"m 524 349 l 557 501 l 586 629 l 385 617 l 368 518 l 321 347 l 343 349 l 524 349 m 631 349 l 817 349 l 790 282 l 613 279 l 594 196 l 550 -7 l 443 -7 l 508 276 l 300 269 l 229 -7 l 107 -14 l 188 267 l 14 265 l 14 339 l 210 344 l 264 538 l 279 619 l 71 628 l 61 703 l 292 699 l 353 1000 l 467 990 l 438 889 l 400 693 l 604 708 l 663 975 l 756 963 l 706 711 l 890 719 l 897 642 l 690 635 l 678 575 l 631 349 z "},"№":{"ha":1449,"x_min":42,"x_max":1421,"o":"m 935 51 l 943 0 l 653 4 l 649 42 l 717 68 l 253 764 l 257 69 l 329 47 l 336 -6 l 46 0 l 42 38 l 157 81 l 146 901 l 57 924 l 60 967 l 357 968 l 364 928 l 285 903 l 753 193 l 763 904 l 667 932 l 668 971 l 967 975 l 974 935 l 881 904 l 836 83 l 935 51 m 1146 936 l 1081 825 l 1118 675 l 1221 610 l 1322 721 l 1342 863 l 1271 924 l 1146 936 m 1322 978 l 1421 875 l 1404 665 l 1244 556 l 1089 592 l 1010 776 l 1056 942 l 1218 990 l 1322 978 m 1101 479 l 1263 478 l 1396 492 l 1382 406 l 1308 413 l 1115 419 l 1021 413 l 1021 482 l 1101 479 z "},"%":{"ha":1036,"x_min":42,"x_max":994,"o":"m 168 896 l 124 758 l 129 663 l 213 588 l 271 583 l 354 681 l 349 832 l 279 893 l 168 896 m 329 978 l 435 867 l 436 653 l 322 504 l 179 501 l 50 625 l 42 753 l 83 936 l 168 990 l 329 978 m 763 944 l 701 838 l 376 -1 l 294 32 l 276 56 l 576 742 l 674 988 l 763 944 m 726 381 l 682 243 l 688 147 l 771 72 l 829 68 l 913 165 l 907 317 l 838 378 l 726 381 m 888 463 l 993 351 l 994 138 l 881 -11 l 738 -14 l 608 110 l 600 238 l 642 421 l 726 475 l 888 463 z "},"(":{"ha":381,"x_min":69,"x_max":367,"o":"m 351 1107 l 222 786 l 163 364 l 214 47 l 367 -232 l 314 -265 l 150 -58 l 69 310 l 96 744 l 299 1133 l 351 1107 z "},")":{"ha":390,"x_min":14,"x_max":321,"o":"m 88 1151 l 294 754 l 321 310 l 236 -67 l 69 -278 l 14 -243 l 156 -29 l 210 322 l 200 750 l 31 1125 l 88 1151 z "},"!":{"ha":293,"x_min":69,"x_max":224,"o":"m 214 964 l 224 901 l 179 226 l 104 235 l 107 682 l 83 971 l 214 964 m 217 108 l 176 4 l 86 7 l 69 85 l 114 138 l 217 108 z "},"?":{"ha":583,"x_min":28,"x_max":556,"o":"m 290 990 l 528 908 l 556 732 l 369 540 l 222 319 l 233 225 l 171 225 l 153 349 l 219 514 l 449 742 l 407 849 l 265 908 l 43 825 l 28 942 l 290 990 m 269 97 l 308 35 l 221 -35 l 164 40 l 183 103 l 269 97 z "},"*":{"ha":511,"x_min":14,"x_max":497,"o":"m 324 963 l 315 896 l 300 794 l 394 836 l 468 863 l 490 807 l 497 736 l 392 736 l 314 719 l 353 653 l 436 578 l 338 490 l 317 546 l 278 638 l 254 674 l 222 625 l 174 493 l 99 533 l 67 569 l 119 633 l 194 718 l 99 731 l 14 732 l 60 878 l 149 818 l 229 782 l 222 864 l 185 975 l 324 963 z "},"—":{"ha":1003,"x_min":28,"x_max":975,"o":"m 28 501 l 503 494 l 965 497 l 975 415 l 515 413 l 28 425 l 28 501 z "},"–":{"ha":757,"x_min":28,"x_max":729,"o":"m 28 497 q 149 492 94 494 q 194 490 171 490 q 235 488 217 489 q 265 487 253 488 q 281 486 278 486 q 303 487 282 486 q 356 488 324 488 q 428 490 388 489 q 510 492 468 490 q 729 497 607 494 l 715 415 l 267 413 l 33 396 l 28 497 l 28 497 z "},"-":{"ha":500,"x_min":28,"x_max":472,"o":"m 239 511 l 472 508 l 464 400 l 282 406 l 35 406 l 28 515 l 239 511 z "},"+":{"ha":640,"x_min":28,"x_max":613,"o":"m 613 493 l 613 406 l 488 413 l 361 411 l 360 329 l 363 151 l 289 150 l 278 322 l 279 411 l 181 411 l 28 411 l 31 494 l 190 490 l 282 493 l 282 549 l 276 733 l 364 726 l 368 550 l 364 496 l 476 501 l 613 493 z "},"=":{"ha":750,"x_min":28,"x_max":722,"o":"m 279 603 l 506 603 q 722 604 603 603 l 710 525 l 263 525 l 31 525 l 28 603 l 279 603 m 272 383 l 493 383 q 706 385 588 383 l 710 306 l 257 306 l 33 306 l 29 383 l 272 383 z "},"§":{"ha":650,"x_min":56,"x_max":594,"o":"m 267 508 l 199 454 l 179 385 l 210 294 l 399 214 l 457 275 l 475 378 l 379 469 l 267 508 m 547 836 l 358 876 l 221 836 l 200 690 l 396 575 l 571 442 l 593 307 l 472 169 l 590 63 l 594 -56 l 447 -207 l 192 -206 l 72 -136 l 117 -47 l 257 -119 l 422 -107 l 472 -24 l 449 65 l 257 172 l 90 258 l 56 406 l 122 524 l 178 556 l 96 644 l 117 847 l 251 939 l 393 957 l 564 919 l 547 836 z "},"€":{"ha":778,"x_min":0,"x_max":736,"o":"m 736 138 l 613 -4 l 369 -22 l 164 111 l 114 386 l 15 388 l 19 438 l 106 436 l 103 446 l 115 511 l 6 511 l 0 553 l 121 556 l 149 708 l 304 940 l 554 990 l 725 875 l 619 643 l 558 665 l 601 846 l 532 901 l 356 861 l 275 678 l 254 564 l 615 557 l 607 506 l 296 514 l 246 514 l 231 446 l 235 435 l 251 435 l 607 429 l 618 376 l 247 381 l 293 174 l 415 101 l 569 83 l 679 204 l 736 138 z "},"$":{"ha":803,"x_min":35,"x_max":768,"o":"m 622 178 l 582 393 l 482 415 l 488 122 l 622 178 m 439 101 l 440 138 l 436 425 l 376 438 l 381 349 l 364 103 l 407 90 l 439 101 m 315 575 l 314 693 l 307 847 l 199 740 l 283 581 l 315 575 m 363 857 l 369 674 l 372 560 l 435 540 l 428 867 l 363 857 m 644 486 l 728 381 l 704 113 l 490 13 l 492 -100 l 436 -117 l 436 -10 l 414 -21 l 357 -6 l 351 -107 l 294 -107 l 303 10 l 163 47 l 117 -24 l 35 -4 l 115 183 l 189 163 l 307 124 l 317 339 l 315 449 l 156 482 l 78 772 l 225 942 l 304 949 l 297 1026 l 357 1003 l 360 951 l 426 958 l 426 1017 l 492 1024 l 483 961 l 565 971 l 654 911 l 692 961 l 768 906 l 639 747 l 581 796 l 517 881 l 472 874 l 471 860 l 479 531 l 644 486 z "},"±":{"ha":624,"x_min":28,"x_max":596,"o":"m 596 544 l 596 457 l 474 464 l 351 464 l 349 385 l 351 210 l 279 208 l 268 376 l 269 463 l 175 463 l 28 463 l 28 549 l 185 542 l 274 544 l 275 597 l 267 779 l 353 774 l 357 599 l 353 549 l 463 553 l 596 544 m 307 153 l 588 151 l 582 57 l 342 65 l 69 65 l 61 158 l 307 153 z "},"×":{"ha":613,"x_min":42,"x_max":571,"o":"m 571 260 l 501 190 l 406 293 l 306 393 l 239 331 l 100 189 l 42 242 l 169 390 l 240 457 l 163 535 l 42 658 l 111 722 l 232 592 l 310 522 l 353 565 l 496 717 l 560 642 l 419 500 l 375 458 l 468 375 l 571 260 z "},"¾":{"ha":1006,"x_min":69,"x_max":936,"o":"m 653 175 l 785 175 l 786 350 l 653 175 m 872 450 l 865 149 l 933 160 l 936 106 l 867 94 l 874 -28 l 772 -35 l 785 104 l 551 106 l 544 150 l 782 457 l 872 450 m 743 911 l 682 803 l 357 -33 l 272 0 l 268 10 l 569 696 l 653 954 l 743 911 m 343 963 l 353 938 l 233 810 l 357 790 l 400 597 l 240 485 l 69 574 l 103 649 l 222 564 l 321 636 l 299 753 l 157 758 l 149 800 l 235 903 l 99 910 l 94 969 l 343 963 z "},"½":{"ha":838,"x_min":69,"x_max":768,"o":"m 619 911 l 558 803 l 232 -33 l 150 0 l 146 10 l 446 696 l 529 954 l 619 911 m 185 1003 l 253 986 l 256 533 l 172 524 l 172 929 l 86 892 l 69 974 l 185 1003 m 608 444 l 757 358 l 718 183 l 578 64 l 768 64 l 764 0 l 482 -4 l 476 64 l 640 232 l 682 336 l 614 363 l 496 329 l 476 393 l 608 444 z "},"¼":{"ha":882,"x_min":69,"x_max":813,"o":"m 529 175 l 661 175 l 663 350 l 529 175 m 749 450 l 742 149 l 810 160 l 813 106 l 743 94 l 750 -28 l 649 -35 l 661 104 l 428 106 l 421 150 l 658 457 l 749 450 m 619 911 l 558 803 l 233 -33 l 149 0 l 144 10 l 446 696 l 529 954 l 619 911 m 185 1003 l 253 986 l 256 533 l 172 524 l 172 929 l 86 892 l 69 974 l 185 1003 z "},"æ":{"ha":1003,"x_min":69,"x_max":933,"o":"m 331 101 q 349 130 331 103 q 392 189 368 157 q 454 274 418 226 l 442 368 l 332 367 l 181 265 l 176 118 l 229 89 l 279 92 q 315 95 299 93 q 331 101 331 97 m 535 357 l 538 363 l 785 394 l 794 553 l 701 631 l 547 567 l 535 357 m 721 -18 l 511 46 l 471 163 l 375 31 l 153 -12 l 69 86 l 72 288 l 297 436 l 440 457 l 454 603 l 229 631 l 164 515 l 92 596 l 103 626 l 244 726 l 508 654 l 622 701 l 792 686 l 901 551 l 892 332 l 550 274 l 593 113 l 621 81 l 735 61 l 843 126 l 896 186 l 922 169 l 933 61 l 721 -18 z "},"Æ":{"ha":1144,"x_min":0,"x_max":1075,"o":"m 561 842 l 422 819 l 292 381 l 296 350 l 572 431 l 561 842 m 746 0 l 563 13 l 581 76 l 574 317 l 238 246 l 225 189 l 197 68 l 285 43 l 292 0 l 7 3 l 0 44 l 86 75 l 363 983 l 646 956 l 1053 946 l 1054 771 l 985 774 l 965 858 l 690 860 l 665 826 l 672 538 l 996 510 l 983 449 l 676 442 l 672 331 l 740 103 l 990 88 l 1006 199 l 1074 204 l 1075 -7 l 746 0 z "},"ð":{"ha":719,"x_min":42,"x_max":650,"o":"m 542 193 l 535 372 l 396 471 l 279 465 l 157 371 l 156 179 l 311 90 l 421 92 l 542 193 m 650 147 l 454 -17 l 243 -25 l 42 183 l 42 399 l 215 554 l 446 564 l 515 501 l 489 685 l 393 814 l 256 686 l 222 743 l 347 879 l 321 911 l 193 994 l 238 1049 l 350 990 l 400 933 l 429 965 l 460 1058 l 540 1024 l 501 913 l 456 872 l 568 746 l 601 596 l 650 147 z "},"Ё":{"ha":839,"x_min":28,"x_max":769,"o":"m 636 1135 l 631 1060 l 553 1026 l 511 1110 l 550 1153 l 636 1135 m 379 1128 l 385 1061 l 290 1029 l 250 1103 l 290 1164 l 379 1128 m 769 3 l 75 13 l 68 57 l 203 82 l 157 876 l 36 917 l 28 963 l 746 947 l 746 774 l 679 776 l 661 860 l 297 863 l 272 829 l 278 542 l 689 515 l 678 456 l 281 449 l 278 339 l 347 111 l 686 97 l 700 206 l 768 211 l 769 3 z "},"ё":{"ha":679,"x_min":69,"x_max":610,"o":"m 547 871 l 556 788 l 483 764 l 421 832 l 471 903 l 547 871 m 281 853 l 286 786 l 214 761 l 149 828 l 232 900 l 281 853 m 186 375 l 499 426 l 460 600 l 369 632 l 196 575 l 183 369 l 186 375 m 458 690 l 564 597 l 603 364 l 185 299 l 256 86 l 414 90 l 600 146 l 610 40 l 235 -14 l 69 231 l 88 574 l 265 706 l 458 690 z "},"О":{"ha":889,"x_min":69,"x_max":819,"o":"m 239 863 l 161 571 l 232 233 l 413 78 l 532 68 l 719 396 l 647 733 l 503 871 l 239 863 m 578 979 l 768 772 l 819 368 l 606 -18 l 353 -26 l 124 203 l 69 560 l 144 899 l 296 1004 l 578 979 z "},"Р":{"ha":754,"x_min":42,"x_max":713,"o":"m 246 847 l 263 482 l 508 483 l 628 632 l 551 840 l 367 885 l 246 847 m 254 374 l 254 74 l 338 46 l 346 -4 l 57 3 l 54 36 l 153 75 l 143 886 l 96 924 l 42 931 l 49 982 l 164 986 l 228 953 l 356 964 l 653 904 l 713 563 l 539 393 l 254 374 z "},"С":{"ha":694,"x_min":63,"x_max":667,"o":"m 590 97 l 635 -8 l 300 -31 l 85 110 l 63 735 l 225 969 l 494 1024 l 667 907 l 494 679 l 453 711 l 538 872 l 463 939 l 279 896 l 204 701 l 204 163 l 332 86 l 590 97 z "},"Х":{"ha":917,"x_min":0,"x_max":917,"o":"m 917 1 l 626 -7 l 621 31 l 688 58 l 515 364 l 454 461 l 239 58 l 304 36 l 300 -4 l 1 -3 l 0 39 l 99 65 l 407 532 l 149 910 l 65 935 l 67 975 l 363 976 l 369 939 l 294 914 l 458 608 l 483 569 l 682 906 l 611 940 l 617 975 l 906 954 l 896 904 l 793 882 l 525 507 l 525 504 l 797 81 l 906 53 l 917 1 z "},"Е":{"ha":856,"x_min":28,"x_max":786,"o":"m 786 -12 l 78 -3 l 69 44 l 207 68 l 161 882 l 40 924 l 28 971 l 761 954 l 763 778 l 693 781 l 674 865 l 304 867 l 278 833 l 285 540 l 704 511 l 692 451 l 288 444 l 285 329 l 354 99 l 700 85 l 715 196 l 785 203 l 786 -12 z "},"а":{"ha":721,"x_min":69,"x_max":693,"o":"m 343 360 l 188 256 l 183 100 l 239 71 q 290 74 267 72 q 326 77 310 75 q 342 82 342 79 q 347 90 342 82 q 362 112 353 99 q 382 141 371 125 q 406 174 393 157 q 471 263 433 213 l 461 364 l 343 360 m 254 735 l 568 661 l 574 90 l 692 82 l 693 18 l 521 1 l 463 124 l 390 10 l 156 -35 l 69 69 l 75 281 l 313 435 l 460 454 l 471 606 l 239 636 l 171 518 l 94 599 l 108 633 l 254 735 z "},"о":{"ha":693,"x_min":42,"x_max":651,"o":"m 260 638 l 138 479 l 164 206 l 318 60 l 422 61 l 553 317 l 494 557 l 401 626 l 260 638 m 449 731 l 596 594 l 651 276 l 456 -31 l 261 -39 l 57 207 l 42 524 l 215 731 l 449 731 z "},"р":{"ha":783,"x_min":42,"x_max":742,"o":"m 615 347 l 539 571 l 383 592 l 239 540 l 247 181 l 392 125 l 576 207 l 615 347 m 742 322 l 597 71 l 374 28 l 233 92 l 240 -221 l 333 -253 l 328 -307 l 47 -306 l 42 -264 l 128 -229 l 119 639 l 72 656 l 119 747 l 240 685 l 231 629 l 376 683 l 614 681 l 742 322 z "},"с":{"ha":597,"x_min":72,"x_max":569,"o":"m 569 -8 l 354 -19 l 83 69 l 72 413 l 190 650 l 386 717 l 536 631 l 461 435 l 418 457 l 461 586 l 407 631 l 407 631 l 244 554 l 169 382 l 190 133 l 354 69 l 536 100 l 569 -8 z "},"х":{"ha":651,"x_min":0,"x_max":651,"o":"m 651 1 l 417 1 l 413 38 l 457 54 l 346 258 l 307 338 l 172 64 l 247 38 l 242 -1 l 3 1 l 0 40 l 44 53 l 258 406 l 75 656 l 7 678 l 8 717 l 250 717 l 254 682 l 194 658 l 325 446 l 447 665 l 404 690 l 413 722 l 646 699 l 635 654 l 547 632 l 382 360 l 579 71 l 646 47 l 651 1 z "},"е":{"ha":688,"x_min":69,"x_max":618,"o":"m 186 381 l 503 431 l 465 608 l 374 643 l 197 582 l 185 375 l 186 381 m 461 700 l 569 604 l 608 371 l 185 304 l 258 88 l 418 93 l 607 150 l 618 43 l 236 -12 l 69 233 l 88 582 l 269 714 l 461 700 z "},">":{"ha":697,"x_min":28,"x_max":683,"o":"m 72 707 l 610 431 l 683 381 l 683 321 l 61 -6 l 28 78 l 551 347 l 90 599 l 67 633 l 72 707 z "},".":{"ha":263,"x_min":42,"x_max":221,"o":"m 111 163 l 218 135 l 221 8 l 100 -18 l 42 86 l 111 163 z "},",":{"ha":276,"x_min":42,"x_max":235,"o":"m 149 167 l 235 94 l 188 -31 l 88 -156 l 42 -144 l 138 -7 l 71 6 l 53 125 l 149 167 z "},"'":{"ha":236,"x_min":56,"x_max":181,"o":"m 181 964 l 176 901 l 154 639 l 85 633 l 56 971 l 181 964 z "},"\"":{"ha":439,"x_min":56,"x_max":383,"o":"m 181 964 l 176 901 l 154 639 l 85 633 l 56 971 l 181 964 m 383 964 l 379 901 l 357 639 l 288 633 l 258 971 l 383 964 z "},"¶":{"ha":794,"x_min":42,"x_max":711,"o":"m 690 528 l 706 -292 l 601 -299 l 597 3 l 608 864 l 481 878 l 476 617 l 489 -303 l 375 -314 l 390 -121 l 394 258 l 243 281 l 42 490 l 94 850 l 407 981 l 711 963 l 690 528 z "},"А":{"ha":856,"x_min":4,"x_max":854,"o":"m 854 0 l 585 0 l 553 33 l 661 64 l 618 260 l 585 324 l 240 281 l 218 206 l 197 64 l 283 33 l 283 -11 l 4 10 l 4 54 l 89 75 l 347 981 l 499 958 l 769 75 l 844 54 l 854 0 m 553 419 l 435 851 l 414 840 l 272 389 l 272 365 l 553 419 z "},"&":{"ha":888,"x_min":28,"x_max":888,"o":"m 813 71 l 881 1 l 726 -3 l 640 97 l 626 76 l 374 -49 l 119 57 l 28 311 l 197 515 l 244 547 l 147 754 l 260 992 l 526 1001 l 663 800 l 589 676 l 392 518 l 390 518 l 586 289 l 632 243 l 736 360 l 740 557 l 888 551 l 818 347 l 699 179 l 813 71 m 318 600 l 564 772 l 493 897 l 332 926 l 264 793 l 285 640 l 318 600 m 572 178 l 568 183 l 308 453 l 143 318 l 176 158 l 326 54 l 529 129 l 572 178 z "},"/":{"ha":465,"x_min":0,"x_max":465,"o":"m 371 757 l 96 -37 l 0 -29 l 378 1004 l 465 982 l 371 757 z "},"_":{"ha":465,"x_min":0,"x_max":465,"o":"m 0 -72 q 121 -78 67 -75 q 166 -80 143 -79 q 207 -81 189 -81 q 238 -83 225 -82 q 253 -83 250 -83 q 291 -82 257 -83 q 364 -78 325 -81 q 465 -72 410 -75 l 451 -154 l 239 -157 l 6 -174 l 0 -72 l 0 -72 z "},"•":{"ha":453,"x_min":83,"x_max":369,"o":"m 293 585 l 369 461 l 292 336 l 151 356 l 83 468 l 153 588 l 293 585 z "},"Є":{"ha":838,"x_min":56,"x_max":768,"o":"m 68 608 l 138 847 l 303 978 l 481 982 l 710 876 l 751 731 l 635 693 l 643 829 l 472 901 l 240 796 l 172 590 l 174 576 l 335 551 l 539 581 l 536 481 l 340 471 l 183 478 l 193 400 l 214 200 l 429 82 l 674 168 l 643 356 l 749 350 l 768 104 l 413 -25 l 96 136 l 56 454 l 68 608 z "},"є":{"ha":681,"x_min":56,"x_max":611,"o":"m 65 451 l 124 611 l 214 685 l 369 725 l 561 638 l 599 510 l 497 483 l 506 596 l 363 657 l 210 568 l 154 435 l 154 424 l 292 401 l 419 426 l 417 342 l 297 333 l 165 339 l 172 275 l 189 174 l 326 74 l 532 144 l 506 304 l 596 299 l 611 89 l 313 -18 l 86 119 l 56 319 l 65 451 z "},"ћ":{"ha":815,"x_min":63,"x_max":843,"o":"m 157 803 l 160 876 l 69 956 l 174 1026 l 264 883 l 261 801 l 274 801 l 507 799 l 499 690 l 317 696 l 258 696 l 249 392 l 394 589 l 578 535 l 663 378 l 643 61 l 672 42 l 768 194 l 843 129 l 681 -37 l 564 14 l 549 374 l 453 481 l 256 299 l 256 64 l 357 33 l 365 -7 l 94 -8 l 86 33 l 139 54 l 154 696 l 69 696 l 63 806 l 157 803 z "},"ђ":{"ha":718,"x_min":63,"x_max":663,"o":"m 549 374 l 453 481 l 256 299 l 256 64 l 343 33 l 351 -7 l 81 -8 l 72 33 l 139 54 l 154 696 l 69 696 l 63 806 l 157 803 l 160 876 l 69 956 l 174 1026 l 264 883 l 261 801 l 274 801 l 507 799 l 499 690 l 317 696 l 258 696 l 249 392 l 394 589 l 578 535 l 663 378 l 658 81 l 590 -74 l 389 -167 l 354 -82 l 517 -19 l 557 160 l 549 374 z "},"ј":{"ha":386,"x_min":-97,"x_max":358,"o":"m 267 636 l 256 11 l 188 -143 l -90 -249 l -97 -150 l 114 -89 l 154 90 l 147 640 l 74 664 l 64 700 l 347 715 l 358 686 l 267 636 m 203 804 l 129 878 l 154 971 l 243 971 l 283 913 l 203 804 z "},"Ѕ":{"ha":803,"x_min":35,"x_max":768,"o":"m 568 978 l 656 918 l 694 972 l 768 914 l 638 757 l 585 806 l 518 892 l 310 858 l 200 747 l 285 590 l 644 496 l 729 392 l 704 121 l 417 -12 l 163 57 l 119 -12 l 35 7 l 119 193 l 190 172 l 410 101 l 626 188 l 585 403 l 158 490 l 79 781 l 226 953 l 568 978 z "},"ѕ":{"ha":657,"x_min":42,"x_max":615,"o":"m 344 725 l 500 661 l 556 715 l 615 674 l 510 532 l 460 579 l 232 633 l 158 547 l 254 413 l 533 343 l 572 107 l 389 -7 l 144 49 l 111 -8 l 42 4 l 89 150 l 372 83 l 460 149 l 426 265 l 129 367 l 49 532 l 115 686 l 344 725 z "},"„":{"ha":525,"x_min":42,"x_max":483,"o":"m 147 189 l 233 118 l 186 -8 l 86 -132 l 42 -122 l 136 15 l 69 28 l 51 147 l 147 189 m 396 189 l 483 118 l 435 -8 l 335 -132 l 289 -122 l 385 15 l 318 28 l 300 147 l 396 189 z "},"…":{"ha":788,"x_min":42,"x_max":746,"o":"m 111 163 l 218 135 l 221 8 l 100 -18 l 42 86 l 111 163 m 374 163 l 481 135 l 483 8 l 363 -18 l 304 86 l 374 163 m 636 163 l 743 135 l 746 8 l 625 -18 l 567 86 l 636 163 z "},"†":{"ha":611,"x_min":0,"x_max":611,"o":"m 344 989 l 353 617 l 531 617 q 611 618 574 617 l 599 539 l 356 539 l 358 411 l 342 -333 l 253 -343 l 264 414 l 257 539 l 3 539 l 0 617 l 210 617 l 254 617 l 236 1011 l 344 989 z "},"‡":{"ha":611,"x_min":0,"x_max":611,"o":"m 203 78 l 258 78 l 264 414 l 257 567 l 3 567 l 0 644 l 254 644 l 236 1011 l 344 989 l 353 644 l 531 644 q 611 646 574 644 l 599 567 l 356 567 l 358 411 l 350 78 l 519 78 q 594 79 560 78 l 599 0 l 349 0 l 342 -333 l 253 -343 l 257 0 l 6 0 l 1 78 l 203 78 z "},"‰":{"ha":1425,"x_min":42,"x_max":1383,"o":"m 168 896 l 124 758 l 129 663 l 213 588 l 271 583 l 354 681 l 349 832 l 279 893 l 168 896 m 329 978 l 435 867 l 436 653 l 322 504 l 179 501 l 50 625 l 42 753 l 83 936 l 168 990 l 329 978 m 763 944 l 701 838 l 376 -1 l 294 32 l 276 56 l 576 742 l 674 988 l 763 944 m 685 381 l 640 243 l 646 147 l 729 72 l 788 68 l 871 165 l 865 317 l 796 378 l 685 381 m 846 463 l 951 351 l 953 138 l 839 -11 l 696 -14 l 567 110 l 558 238 l 600 421 l 685 475 l 846 463 m 1115 381 l 1071 243 l 1076 147 l 1160 72 l 1218 68 l 1301 165 l 1296 317 l 1226 378 l 1115 381 m 1276 463 l 1382 351 l 1383 138 l 1269 -11 l 1126 -14 l 997 110 l 989 238 l 1031 421 l 1115 475 l 1276 463 z "},"Ј":{"ha":653,"x_min":0,"x_max":611,"o":"m 529 901 l 514 149 l 453 -99 l 250 -210 l 57 -117 l 0 82 l 114 119 l 156 -94 l 238 -99 l 367 -7 l 408 207 l 400 907 l 293 943 l 297 985 l 604 986 l 611 935 l 529 901 z "},"¬":{"ha":569,"x_min":28,"x_max":542,"o":"m 542 510 l 533 263 l 439 268 l 449 414 l 282 419 l 35 419 l 28 515 l 239 511 l 443 508 l 443 510 l 542 510 z "},"­":{"ha":500,"x_min":28,"x_max":472,"o":"m 239 511 l 472 508 l 464 400 l 282 406 l 35 406 l 28 515 l 239 511 z "},"І":{"ha":392,"x_min":42,"x_max":350,"o":"m 335 28 l 338 -14 l 72 7 l 71 47 l 167 78 l 143 910 l 42 944 l 44 982 l 342 985 l 350 935 l 257 907 l 253 58 l 335 28 z "},"і":{"ha":386,"x_min":42,"x_max":358,"o":"m 358 -18 l 81 -21 l 74 19 l 147 49 l 153 636 l 51 671 l 42 706 l 331 722 l 344 694 l 260 647 l 254 50 l 353 21 l 358 -18 m 168 811 l 121 906 l 178 960 l 267 949 l 274 856 l 168 811 z "},"Ї":{"ha":392,"x_min":28,"x_max":358,"o":"m 335 28 l 338 -14 l 72 7 l 71 47 l 167 78 l 143 910 l 42 944 l 44 982 l 342 985 l 350 935 l 257 907 l 253 58 l 335 28 m 358 1163 l 353 1088 l 275 1054 l 233 1138 l 272 1181 l 358 1163 m 157 1156 l 163 1089 l 68 1057 l 28 1131 l 68 1192 l 157 1156 z "},"ї":{"ha":386,"x_min":-4,"x_max":358,"o":"m 358 -18 l 81 -21 l 74 19 l 147 49 l 153 636 l 51 671 l 42 706 l 331 722 l 344 694 l 260 647 l 254 50 l 353 21 l 358 -18 m 43 811 l -4 906 l 53 960 l 142 949 l 149 856 l 43 811 m 251 811 l 204 906 l 261 960 l 350 949 l 357 856 l 251 811 z "},"ґ":{"ha":599,"x_min":42,"x_max":571,"o":"m 465 699 l 469 794 l 568 803 l 571 731 l 564 604 l 246 599 l 256 76 l 340 51 l 333 1 l 47 1 l 42 42 l 126 71 l 143 614 l 68 661 l 69 689 l 465 699 z "},"Ґ":{"ha":708,"x_min":42,"x_max":681,"o":"m 672 871 l 258 868 l 268 72 l 350 49 l 342 0 l 47 0 l 42 39 l 125 67 l 139 882 l 68 926 l 69 954 l 578 969 l 575 1081 l 679 1079 l 681 993 l 672 871 z "},"Ў":{"ha":940,"x_min":0,"x_max":940,"o":"m 265 -32 l 174 -19 l 169 115 l 357 61 l 429 186 l 82 897 l 0 931 l 4 969 l 304 974 l 294 918 l 240 901 l 485 304 l 707 910 l 608 938 l 610 982 l 935 983 l 940 940 l 818 901 l 522 160 l 444 4 l 265 -32 m 440 1107 l 475 1081 l 617 1249 l 708 1164 l 486 1039 l 440 1039 l 218 1188 l 288 1236 l 440 1107 z "},"ў":{"ha":738,"x_min":0,"x_max":738,"o":"m 665 646 l 426 -218 l 286 -328 l 132 -292 l 92 -282 l 99 -118 l 144 1 l 228 -33 l 160 -132 l 174 -204 l 274 -237 l 343 -197 l 371 -71 l 392 53 l 293 31 l 81 617 l 18 622 l 0 683 l 185 699 l 247 407 l 400 86 l 551 649 l 486 669 l 490 707 l 733 710 l 738 675 l 665 646 m 328 846 l 360 829 l 514 957 l 606 874 l 376 776 l 328 776 l 117 899 l 186 944 l 328 846 z "},"¦":{"ha":289,"x_min":83,"x_max":206,"o":"m 192 989 l 206 411 l 206 399 l 169 400 l 111 401 l 111 414 l 83 1011 l 192 989 m 100 -343 l 108 294 l 203 294 l 189 -333 l 100 -343 z "},"џ":{"ha":804,"x_min":42,"x_max":763,"o":"m 694 75 l 763 71 l 749 -7 l 707 4 l 472 4 l 453 -224 l 385 -222 l 360 4 l 107 4 l 65 -7 l 42 69 l 122 75 l 142 79 l 135 650 l 60 679 l 64 710 l 310 715 l 304 671 l 249 656 l 247 79 l 567 79 l 567 656 l 511 671 l 504 715 l 753 710 l 739 679 l 682 650 l 672 79 l 694 75 z "},"Џ":{"ha":1006,"x_min":42,"x_max":964,"o":"m 881 104 l 964 93 l 943 -1 l 893 13 l 568 13 l 547 -224 l 479 -222 l 454 10 l 463 13 l 122 13 l 68 -1 l 42 92 l 133 104 l 171 104 l 161 893 l 69 929 l 74 965 l 375 971 l 368 918 l 286 896 l 283 106 l 731 106 l 731 896 l 649 918 l 640 971 l 943 965 l 925 929 l 854 893 l 843 104 l 881 104 z "},"Ќ":{"ha":875,"x_min":42,"x_max":875,"o":"m 875 75 l 792 -36 l 611 72 l 513 383 l 393 475 l 274 438 l 271 75 l 367 56 l 374 1 l 68 7 l 63 44 l 156 72 l 156 899 l 42 940 l 43 981 l 356 981 l 364 929 l 279 906 l 282 904 l 275 531 l 414 569 l 507 640 l 592 947 l 757 981 l 781 897 l 679 878 l 556 565 l 503 526 l 589 482 l 696 157 l 875 75 m 396 1015 l 456 1208 l 521 1204 l 582 1208 l 514 1103 l 456 1015 l 396 1015 z "},"ќ":{"ha":688,"x_min":42,"x_max":688,"o":"m 688 63 l 629 -28 l 513 43 l 325 347 l 222 315 l 219 69 l 324 38 l 332 0 l 57 -7 l 49 33 l 118 63 l 117 644 l 42 668 l 44 703 l 325 707 l 317 656 l 222 636 l 222 386 l 321 407 l 429 553 l 521 724 l 600 699 l 497 504 l 401 376 l 593 117 l 688 63 m 301 764 l 361 957 l 426 953 l 488 957 l 419 851 l 361 764 l 301 764 z "},"Ѓ":{"ha":708,"x_min":42,"x_max":681,"o":"m 681 850 l 679 764 l 558 782 l 578 874 l 258 868 l 268 72 l 350 49 l 342 0 l 47 0 l 42 39 l 125 67 l 139 882 l 68 926 l 69 954 l 672 972 l 681 850 m 340 1015 l 400 1208 l 465 1204 l 526 1208 l 458 1103 l 400 1015 l 340 1015 z "},"ѓ":{"ha":599,"x_min":42,"x_max":571,"o":"m 571 582 l 568 510 l 460 526 l 479 604 l 246 599 l 256 76 l 340 51 l 333 1 l 47 1 l 42 42 l 126 71 l 143 614 l 68 661 l 69 689 l 564 708 l 571 582 m 274 750 l 333 943 l 399 939 l 460 943 l 392 838 l 333 750 l 274 750 z "},"‚":{"ha":276,"x_min":42,"x_max":235,"o":"m 149 167 l 235 94 l 188 -31 l 88 -156 l 42 -144 l 138 -7 l 71 6 l 53 125 l 149 167 z "},"`":{"ha":186,"x_min":0,"x_max":186,"o":"m 126 793 l 68 881 l 0 986 l 61 982 l 126 986 l 186 793 l 126 793 z "},"Ћ":{"ha":1021,"x_min":0,"x_max":979,"o":"m 363 871 l 358 528 l 757 594 l 872 517 l 889 60 l 979 25 l 975 -11 l 672 -11 l 665 36 l 757 64 l 769 443 l 663 490 l 351 458 l 338 74 l 428 42 l 438 6 l 156 -11 l 139 21 l 238 75 l 238 872 l 219 874 l 106 858 l 100 801 l 19 793 l 0 972 l 206 964 l 660 972 l 632 806 l 563 819 l 556 869 l 417 869 l 363 871 z "},"Ђ":{"ha":938,"x_min":0,"x_max":882,"o":"m 799 -74 l 597 -167 l 563 -82 l 725 -19 l 765 160 l 769 443 l 663 490 l 351 458 l 338 74 l 428 42 l 438 6 l 156 -11 l 139 21 l 238 75 l 238 872 l 219 874 l 106 858 l 100 801 l 19 793 l 0 972 l 206 964 l 660 972 l 632 806 l 563 819 l 556 869 l 417 869 l 363 871 l 358 528 l 757 594 l 872 517 l 882 92 l 799 -74 z "},"µ":{"ha":833,"x_min":6,"x_max":861,"o":"m 303 -318 l 10 -312 l 6 -276 l 106 -247 l 106 201 l 104 207 l 100 635 l 42 660 l 46 693 l 294 699 l 288 649 l 215 619 l 215 228 l 267 104 l 357 154 l 525 247 l 547 633 l 486 661 l 490 699 l 710 699 l 717 651 l 644 624 l 640 108 l 661 74 l 800 194 l 861 89 l 657 -8 l 579 13 l 554 93 l 536 189 l 290 -7 l 204 22 l 201 -246 l 296 -265 l 303 -318 z "},"Њ":{"ha":1217,"x_min":42,"x_max":1175,"o":"m 992 549 l 1175 388 l 1113 72 l 829 8 l 683 19 l 615 -15 l 496 -12 l 489 42 l 546 49 l 594 89 l 590 463 l 264 463 l 243 83 l 351 47 l 360 -4 l 56 0 l 53 35 l 158 76 l 133 889 l 42 921 l 46 960 l 351 963 l 360 911 l 268 883 l 264 585 l 590 561 l 588 888 l 500 896 l 486 968 l 768 964 l 781 917 l 694 889 l 694 569 l 992 549 m 843 90 l 1008 139 l 1081 326 l 963 453 l 703 456 l 701 128 l 843 90 z "},"њ":{"ha":1092,"x_min":42,"x_max":1064,"o":"m 944 10 l 765 6 l 618 58 l 626 4 l 506 -60 l 458 33 l 521 46 l 517 322 l 222 322 l 203 69 l 299 39 l 304 -6 l 57 -3 l 53 29 l 142 65 l 122 639 l 42 668 l 47 703 l 299 703 l 304 661 l 226 638 l 222 415 l 515 411 l 513 632 l 463 636 l 444 689 l 697 708 l 706 654 l 610 626 l 614 419 l 943 410 l 1064 235 l 944 10 m 903 317 l 626 329 l 624 147 l 771 99 l 882 103 l 954 208 l 903 317 z "},"Љ":{"ha":1189,"x_min":0,"x_max":1147,"o":"m 964 604 l 1147 429 l 1085 72 l 801 -6 l 719 1 l 483 7 l 479 44 l 578 65 l 597 872 l 508 872 l 392 850 l 356 564 l 279 144 l 217 13 l 24 -24 l 0 60 l 117 93 l 179 163 l 258 578 l 289 868 l 178 903 l 183 976 l 467 963 l 799 988 l 824 893 l 735 871 l 708 868 l 704 625 l 964 604 m 703 511 l 700 110 l 815 76 l 981 139 l 1046 354 l 935 508 l 703 511 z "},"љ":{"ha":1076,"x_min":0,"x_max":1049,"o":"m 701 707 l 724 633 l 644 614 l 618 613 l 615 393 l 746 450 l 917 407 l 1049 190 l 932 3 l 758 -1 l 694 1 l 696 -4 l 426 1 l 424 36 l 508 69 l 526 614 l 449 614 l 328 593 l 296 403 l 258 143 l 203 18 l 19 -12 l 0 63 l 110 93 l 168 158 l 207 421 l 235 613 l 131 642 l 136 697 l 410 685 l 701 707 m 890 314 l 757 371 l 619 299 l 617 99 l 764 92 l 883 96 l 949 192 l 890 314 z "},"^":{"ha":497,"x_min":0,"x_max":497,"o":"m 111 667 l 0 667 l 190 990 l 288 985 l 497 667 l 392 667 l 235 890 l 133 708 l 111 667 z "},"A":{"ha":856,"x_min":4,"x_max":854,"o":"m 854 0 l 585 0 l 553 33 l 661 64 l 618 260 l 585 324 l 240 281 l 218 206 l 197 64 l 283 33 l 283 -11 l 4 10 l 4 54 l 89 75 l 347 981 l 499 958 l 769 75 l 844 54 l 854 0 m 553 419 l 435 851 l 414 840 l 272 389 l 272 365 l 553 419 z "},"ˇ":{"ha":444,"x_min":0,"x_max":444,"o":"m 236 794 l 0 986 l 69 996 l 125 1007 l 232 885 l 319 986 l 385 982 l 444 971 l 238 793 l 236 793 l 236 794 z "},"˘":{"ha":490,"x_min":0,"x_max":490,"o":"m 222 871 l 257 844 l 399 1013 l 490 928 l 268 803 l 222 803 l 0 951 l 69 1000 l 222 871 z "},"¨":{"ha":372,"x_min":0,"x_max":372,"o":"m 372 935 l 367 860 l 289 826 l 247 910 l 286 953 l 372 935 m 129 928 l 135 861 l 40 829 l 0 903 l 40 964 l 129 928 z "},"´":{"ha":186,"x_min":0,"x_max":186,"o":"m 0 792 l 60 985 l 125 981 l 186 985 l 118 879 l 60 792 l 0 792 z "},"˝":{"ha":347,"x_min":0,"x_max":347,"o":"m 0 806 l 82 985 l 133 981 l 194 983 l 107 879 l 46 806 l 0 806 m 153 803 l 235 983 l 286 978 l 347 982 l 260 876 l 199 803 l 153 803 z "},"ˆ":{"ha":444,"x_min":0,"x_max":444,"o":"m 208 1006 l 444 803 l 375 804 l 319 807 l 213 915 l 125 800 l 60 804 l 0 815 l 207 1007 l 208 1007 l 208 1006 z "},"ƒ":{"ha":564,"x_min":-125,"x_max":675,"o":"m 254 -82 l 90 -231 l -125 -194 l -87 -118 l 68 -143 l 153 -53 l 243 531 l 254 585 l 160 597 l 174 647 l 261 674 l 294 853 l 458 1001 l 675 965 l 638 889 l 481 914 l 396 824 l 368 676 l 564 703 l 558 629 l 358 608 l 254 -82 z "},"Š":{"ha":803,"x_min":35,"x_max":768,"o":"m 35 0 m 568 978 l 656 918 l 694 972 l 768 914 l 638 757 l 585 806 l 518 892 l 310 858 l 200 747 l 285 590 l 644 496 l 729 392 l 704 121 l 417 -12 l 163 57 l 119 -12 l 35 7 l 119 193 l 190 172 l 410 101 l 626 188 l 585 403 l 158 490 l 79 781 l 226 953 l 568 978 m 415 1017 l 179 1208 l 249 1218 l 304 1229 l 411 1107 l 499 1208 l 564 1204 l 624 1193 l 417 1015 l 415 1015 l 415 1017 z "},"Ž":{"ha":778,"x_min":42,"x_max":736,"o":"m 42 3 m 92 993 l 165 968 l 714 978 l 725 886 l 193 131 l 224 104 l 588 129 l 599 204 l 713 213 l 736 18 l 60 3 l 42 104 l 574 865 l 197 869 l 174 803 l 69 825 l 92 993 m 403 1017 l 167 1208 l 236 1218 l 292 1229 l 399 1107 l 486 1208 l 551 1204 l 611 1193 l 404 1015 l 403 1015 l 403 1017 z "},"š":{"ha":657,"x_min":42,"x_max":615,"o":"m 42 0 m 344 725 l 500 661 l 556 715 l 615 674 l 510 532 l 460 579 l 232 633 l 158 547 l 254 413 l 533 343 l 572 107 l 389 -7 l 144 49 l 111 -8 l 42 4 l 89 150 l 372 83 l 460 149 l 426 265 l 129 367 l 49 532 l 115 686 l 344 725 m 342 754 l 106 946 l 175 956 l 231 967 l 338 844 l 425 946 l 490 942 l 550 931 l 343 753 l 342 753 l 342 754 z "},"ž":{"ha":669,"x_min":56,"x_max":614,"o":"m 56 4 m 169 699 l 588 714 l 592 606 l 188 85 l 483 114 l 499 197 l 613 206 l 614 4 l 56 14 l 67 103 l 460 611 l 179 628 l 153 569 l 101 579 l 104 714 l 169 699 m 349 754 l 113 946 l 182 956 l 238 967 l 344 844 l 432 946 l 497 942 l 557 931 l 350 753 l 349 753 l 349 754 z "},"Ÿ":{"ha":875,"x_min":0,"x_max":875,"o":"m 0 3 m 550 54 l 557 3 l 265 8 l 263 42 l 361 81 l 357 426 l 75 907 l 0 936 l 4 972 l 296 978 l 286 926 l 238 910 l 418 540 l 656 919 l 567 943 l 569 985 l 868 986 l 875 946 l 761 910 l 449 436 l 457 83 l 550 54 m 624 1171 l 618 1096 l 540 1063 l 499 1146 l 538 1189 l 624 1171 m 381 1164 l 386 1097 l 292 1065 l 251 1139 l 292 1200 l 381 1164 z "},"¡":{"ha":293,"x_min":69,"x_max":224,"o":"m 114 574 l 69 626 l 86 704 l 176 707 l 217 603 l 114 574 m 83 -260 l 107 29 l 104 476 l 179 485 l 224 -190 l 214 -253 l 83 -260 z "},"¯":{"ha":346,"x_min":0,"x_max":346,"o":"m 172 919 l 346 917 l 340 836 l 204 840 l 6 840 l 0 922 l 172 919 z "},"¿":{"ha":583,"x_min":28,"x_max":556,"o":"m 293 -299 l 56 -217 l 28 -40 l 214 151 l 361 372 l 350 467 l 413 467 l 431 343 l 364 178 l 135 -50 l 176 -157 l 318 -217 l 540 -133 l 556 -250 l 293 -299 m 314 594 l 275 657 l 363 726 l 419 651 l 400 589 l 314 594 z "},"À":{"ha":856,"x_min":4,"x_max":854,"o":"m 4 0 m 854 0 l 585 0 l 553 33 l 661 64 l 618 260 l 585 324 l 240 281 l 218 206 l 197 64 l 283 33 l 283 -11 l 4 10 l 4 54 l 89 75 l 347 981 l 499 958 l 769 75 l 844 54 l 854 0 m 553 419 l 435 851 l 414 840 l 272 389 l 272 365 l 553 419 m 392 1043 l 333 1131 l 265 1236 l 326 1232 l 392 1236 l 451 1043 l 392 1043 z "},"Á":{"ha":856,"x_min":4,"x_max":854,"o":"m 4 0 m 854 0 l 585 0 l 553 33 l 661 64 l 618 260 l 585 324 l 240 281 l 218 206 l 197 64 l 283 33 l 283 -11 l 4 10 l 4 54 l 89 75 l 347 981 l 499 958 l 769 75 l 844 54 l 854 0 m 553 419 l 435 851 l 414 840 l 272 389 l 272 365 l 553 419 m 390 1042 l 450 1235 l 515 1231 l 576 1235 l 508 1129 l 450 1042 l 390 1042 z "},"Â":{"ha":856,"x_min":4,"x_max":854,"o":"m 4 0 m 854 0 l 585 0 l 553 33 l 661 64 l 618 260 l 585 324 l 240 281 l 218 206 l 197 64 l 283 33 l 283 -11 l 4 10 l 4 54 l 89 75 l 347 981 l 499 958 l 769 75 l 844 54 l 854 0 m 553 419 l 435 851 l 414 840 l 272 389 l 272 365 l 553 419 m 414 1228 l 650 1025 l 581 1026 l 525 1029 l 418 1138 l 331 1022 l 265 1026 l 206 1038 l 413 1229 l 414 1229 l 414 1228 z "},"Ä":{"ha":856,"x_min":4,"x_max":854,"o":"m 4 0 m 854 0 l 585 0 l 553 33 l 661 64 l 618 260 l 585 324 l 240 281 l 218 206 l 197 64 l 283 33 l 283 -11 l 4 10 l 4 54 l 89 75 l 347 981 l 499 958 l 769 75 l 844 54 l 854 0 m 553 419 l 435 851 l 414 840 l 272 389 l 272 365 l 553 419 m 600 1143 l 594 1068 l 517 1035 l 475 1118 l 514 1161 l 600 1143 m 357 1136 l 363 1069 l 268 1038 l 228 1111 l 268 1172 l 357 1136 z "},"Ç":{"ha":694,"x_min":63,"x_max":667,"o":"m 63 0 m 590 97 l 635 -8 l 300 -31 l 85 110 l 63 735 l 225 969 l 494 1024 l 667 907 l 494 679 l 453 711 l 538 872 l 463 939 l 279 896 l 204 701 l 204 163 l 332 86 l 590 97 m 431 28 l 397 -56 l 489 -99 l 446 -224 l 342 -276 l 221 -251 l 253 -178 l 310 -215 l 379 -174 l 378 -112 l 282 -79 l 375 39 l 431 28 z "},"È":{"ha":869,"x_min":28,"x_max":800,"o":"m 28 0 m 800 -17 l 78 -7 l 71 40 l 210 65 l 163 893 l 39 936 l 28 985 l 775 967 l 776 788 l 706 790 l 685 878 l 308 879 l 282 844 l 289 546 l 717 517 l 704 456 l 293 447 l 289 332 l 360 96 l 711 82 l 728 194 l 799 203 l 800 -17 m 440 1043 l 382 1131 l 314 1236 l 375 1232 l 440 1236 l 500 1043 l 440 1043 z "},"É":{"ha":869,"x_min":28,"x_max":800,"o":"m 28 0 m 800 -17 l 78 -7 l 71 40 l 210 65 l 163 893 l 39 936 l 28 985 l 775 967 l 776 788 l 706 790 l 685 878 l 308 879 l 282 844 l 289 546 l 717 517 l 704 456 l 293 447 l 289 332 l 360 96 l 711 82 l 728 194 l 799 203 l 800 -17 m 397 1042 l 457 1235 l 522 1231 l 583 1235 l 515 1129 l 457 1042 l 397 1042 z "},"Ê":{"ha":869,"x_min":28,"x_max":800,"o":"m 28 0 m 800 -17 l 78 -7 l 71 40 l 210 65 l 163 893 l 39 936 l 28 985 l 775 967 l 776 788 l 706 790 l 685 878 l 308 879 l 282 844 l 289 546 l 717 517 l 704 456 l 293 447 l 289 332 l 360 96 l 711 82 l 728 194 l 799 203 l 800 -17 m 421 1256 l 657 1053 l 588 1054 l 532 1057 l 425 1165 l 338 1050 l 272 1054 l 213 1065 l 419 1257 l 421 1257 l 421 1256 z "},"Ë":{"ha":869,"x_min":28,"x_max":800,"o":"m 28 0 m 800 -17 l 78 -7 l 71 40 l 210 65 l 163 893 l 39 936 l 28 985 l 775 967 l 776 788 l 706 790 l 685 878 l 308 879 l 282 844 l 289 546 l 717 517 l 704 456 l 293 447 l 289 332 l 360 96 l 711 82 l 728 194 l 799 203 l 800 -17 m 621 1185 l 615 1110 l 538 1076 l 496 1160 l 535 1203 l 621 1185 m 378 1178 l 383 1111 l 289 1079 l 249 1153 l 289 1214 l 378 1178 z "},"Ì":{"ha":392,"x_min":42,"x_max":350,"o":"m 42 0 m 335 28 l 338 -14 l 72 7 l 71 47 l 167 78 l 143 910 l 42 944 l 44 982 l 342 985 l 350 935 l 257 907 l 253 58 l 335 28 m 188 1057 l 129 1144 l 61 1250 l 122 1246 l 188 1250 l 247 1057 l 188 1057 z "},"Í":{"ha":392,"x_min":42,"x_max":350,"o":"m 42 0 m 335 28 l 338 -14 l 72 7 l 71 47 l 167 78 l 143 910 l 42 944 l 44 982 l 342 985 l 350 935 l 257 907 l 253 58 l 335 28 m 144 1056 l 204 1249 l 269 1244 l 331 1249 l 263 1143 l 204 1056 l 144 1056 z "},"Î":{"ha":392,"x_min":-25,"x_max":419,"o":"m 0 0 m 335 28 l 338 -14 l 72 7 l 71 47 l 167 78 l 143 910 l 42 944 l 44 982 l 342 985 l 350 935 l 257 907 l 253 58 l 335 28 m 183 1256 l 419 1053 l 350 1054 l 294 1057 l 188 1165 l 100 1050 l 35 1054 l -25 1065 l 182 1257 l 183 1257 l 183 1256 z "},"Ï":{"ha":392,"x_min":10,"x_max":382,"o":"m 10 0 m 335 28 l 338 -14 l 72 7 l 71 47 l 167 78 l 143 910 l 42 944 l 44 982 l 342 985 l 350 935 l 257 907 l 253 58 l 335 28 m 382 1171 l 376 1096 l 299 1063 l 257 1146 l 296 1189 l 382 1171 m 139 1164 l 144 1097 l 50 1065 l 10 1139 l 50 1200 l 139 1164 z "},"Ð":{"ha":911,"x_min":42,"x_max":869,"o":"m 199 553 l 201 885 l 104 922 l 110 972 l 247 979 l 592 953 l 869 657 l 825 211 l 603 -11 l 250 14 l 42 10 l 46 53 l 196 88 l 199 446 l 90 446 l 83 556 l 199 553 m 760 633 l 576 839 l 422 876 l 319 849 l 315 551 l 528 549 l 519 440 l 338 446 l 314 446 l 311 129 l 576 103 l 744 296 l 760 633 z "},"Ò":{"ha":874,"x_min":69,"x_max":804,"o":"m 69 0 m 236 853 l 160 567 l 229 236 l 406 85 l 522 75 l 706 396 l 636 726 l 494 861 l 236 853 m 568 967 l 754 764 l 804 368 l 594 -10 l 347 -18 l 122 207 l 69 557 l 143 889 l 292 992 l 568 967 m 400 1057 l 342 1144 l 274 1250 l 335 1246 l 400 1250 l 460 1057 l 400 1057 z "},"Ó":{"ha":874,"x_min":69,"x_max":804,"o":"m 69 0 m 236 853 l 160 567 l 229 236 l 406 85 l 522 75 l 706 396 l 636 726 l 494 861 l 236 853 m 568 967 l 754 764 l 804 368 l 594 -10 l 347 -18 l 122 207 l 69 557 l 143 889 l 292 992 l 568 967 m 357 1056 l 417 1249 l 482 1244 l 543 1249 l 475 1143 l 417 1056 l 357 1056 z "},"Ô":{"ha":874,"x_min":69,"x_max":804,"o":"m 69 0 m 236 853 l 160 567 l 229 236 l 406 85 l 522 75 l 706 396 l 636 726 l 494 861 l 236 853 m 568 967 l 754 764 l 804 368 l 594 -10 l 347 -18 l 122 207 l 69 557 l 143 889 l 292 992 l 568 967 m 408 1256 l 644 1053 l 575 1054 l 519 1057 l 413 1165 l 325 1050 l 260 1054 l 200 1065 l 407 1257 l 408 1257 l 408 1256 z "},"Ö":{"ha":874,"x_min":69,"x_max":804,"o":"m 69 0 m 236 853 l 160 567 l 229 236 l 406 85 l 522 75 l 706 396 l 636 726 l 494 861 l 236 853 m 568 967 l 754 764 l 804 368 l 594 -10 l 347 -18 l 122 207 l 69 557 l 143 889 l 292 992 l 568 967 m 594 1171 l 589 1096 l 511 1063 l 469 1146 l 508 1189 l 594 1171 m 351 1164 l 357 1097 l 263 1065 l 222 1139 l 263 1200 l 351 1164 z "},"Ø":{"ha":874,"x_min":69,"x_max":804,"o":"m 633 896 l 754 764 l 804 368 l 594 -10 l 347 -18 l 317 11 l 300 -37 l 204 -29 l 244 83 l 122 207 l 69 557 l 143 889 l 292 992 l 568 967 l 582 1004 l 669 982 l 633 896 m 236 853 l 160 567 l 229 236 l 283 189 l 519 836 l 494 861 l 236 853 m 583 776 l 575 757 l 357 126 l 406 85 l 522 75 l 706 396 l 636 726 l 583 776 z "},"Ù":{"ha":967,"x_min":42,"x_max":925,"o":"m 42 0 m 919 935 l 843 908 l 817 165 l 676 0 l 321 -14 l 158 161 l 126 853 l 119 911 l 42 932 l 43 972 l 336 975 l 340 935 l 249 907 l 253 239 l 340 99 l 628 108 l 713 229 l 701 917 l 636 938 l 638 975 l 925 985 l 919 935 m 475 1015 l 417 1103 l 349 1208 l 410 1204 l 475 1208 l 535 1015 l 475 1015 z "},"Ú":{"ha":967,"x_min":42,"x_max":925,"o":"m 42 0 m 919 935 l 843 908 l 817 165 l 676 0 l 321 -14 l 158 161 l 126 853 l 119 911 l 42 932 l 43 972 l 336 975 l 340 935 l 249 907 l 253 239 l 340 99 l 628 108 l 713 229 l 701 917 l 636 938 l 638 975 l 925 985 l 919 935 m 446 1014 l 506 1207 l 571 1203 l 632 1207 l 564 1101 l 506 1014 l 446 1014 z "},"Û":{"ha":967,"x_min":42,"x_max":925,"o":"m 42 0 m 919 935 l 843 908 l 817 165 l 676 0 l 321 -14 l 158 161 l 126 853 l 119 911 l 42 932 l 43 972 l 336 975 l 340 935 l 249 907 l 253 239 l 340 99 l 628 108 l 713 229 l 701 917 l 636 938 l 638 975 l 925 985 l 919 935 m 469 1242 l 706 1039 l 636 1040 l 581 1043 l 474 1151 l 386 1036 l 321 1040 l 261 1051 l 468 1243 l 469 1243 l 469 1242 z "},"Ü":{"ha":967,"x_min":42,"x_max":925,"o":"m 42 0 m 919 935 l 843 908 l 817 165 l 676 0 l 321 -14 l 158 161 l 126 853 l 119 911 l 42 932 l 43 972 l 336 975 l 340 935 l 249 907 l 253 239 l 340 99 l 628 108 l 713 229 l 701 917 l 636 938 l 638 975 l 925 985 l 919 935 m 669 1157 l 664 1082 l 586 1049 l 544 1132 l 583 1175 l 669 1157 m 426 1150 l 432 1083 l 338 1051 l 297 1125 l 338 1186 l 426 1150 z "},"Ý":{"ha":875,"x_min":0,"x_max":875,"o":"m 0 3 m 550 54 l 557 3 l 265 8 l 263 42 l 361 81 l 357 426 l 75 907 l 0 936 l 4 972 l 296 978 l 286 926 l 238 910 l 418 540 l 656 919 l 567 943 l 569 985 l 868 986 l 875 946 l 761 910 l 449 436 l 457 83 l 550 54 m 372 1014 l 432 1207 l 497 1203 l 558 1207 l 490 1101 l 432 1014 l 372 1014 z "},"à":{"ha":721,"x_min":69,"x_max":693,"o":"m 69 0 m 343 360 l 188 256 l 183 100 l 239 71 q 290 74 267 72 q 326 77 310 75 q 342 82 342 79 q 347 90 342 82 q 362 112 353 99 q 382 141 371 125 q 406 174 393 157 q 471 263 433 213 l 461 364 l 343 360 m 254 735 l 568 661 l 574 90 l 692 82 l 693 18 l 521 1 l 463 124 l 390 10 l 156 -35 l 69 69 l 75 281 l 313 435 l 460 454 l 471 606 l 239 636 l 171 518 l 94 599 l 108 633 l 254 735 m 344 781 l 286 868 l 218 974 l 279 969 l 344 974 l 404 781 l 344 781 z "},"á":{"ha":721,"x_min":69,"x_max":693,"o":"m 69 0 m 343 360 l 188 256 l 183 100 l 239 71 q 290 74 267 72 q 326 77 310 75 q 342 82 342 79 q 347 90 342 82 q 362 112 353 99 q 382 141 371 125 q 406 174 393 157 q 471 263 433 213 l 461 364 l 343 360 m 254 735 l 568 661 l 574 90 l 692 82 l 693 18 l 521 1 l 463 124 l 390 10 l 156 -35 l 69 69 l 75 281 l 313 435 l 460 454 l 471 606 l 239 636 l 171 518 l 94 599 l 108 633 l 254 735 m 301 779 l 361 972 l 426 968 l 488 972 l 419 867 l 361 779 l 301 779 z "},"â":{"ha":721,"x_min":69,"x_max":693,"o":"m 69 0 m 343 360 l 188 256 l 183 100 l 239 71 q 290 74 267 72 q 326 77 310 75 q 342 82 342 79 q 347 90 342 82 q 362 112 353 99 q 382 141 371 125 q 406 174 393 157 q 471 263 433 213 l 461 364 l 343 360 m 254 735 l 568 661 l 574 90 l 692 82 l 693 18 l 521 1 l 463 124 l 390 10 l 156 -35 l 69 69 l 75 281 l 313 435 l 460 454 l 471 606 l 239 636 l 171 518 l 94 599 l 108 633 l 254 735 m 339 993 l 575 790 l 506 792 l 450 794 l 343 903 l 256 788 l 190 792 l 131 803 l 338 994 l 339 994 l 339 993 z "},"ä":{"ha":721,"x_min":69,"x_max":693,"o":"m 69 0 m 343 360 l 188 256 l 183 100 l 239 71 q 290 74 267 72 q 326 77 310 75 q 342 82 342 79 q 347 90 342 82 q 362 112 353 99 q 382 141 371 125 q 406 174 393 157 q 471 263 433 213 l 461 364 l 343 360 m 254 735 l 568 661 l 574 90 l 692 82 l 693 18 l 521 1 l 463 124 l 390 10 l 156 -35 l 69 69 l 75 281 l 313 435 l 460 454 l 471 606 l 239 636 l 171 518 l 94 599 l 108 633 l 254 735 m 525 894 l 519 819 l 442 786 l 400 869 l 439 913 l 525 894 m 282 888 l 288 821 l 193 789 l 153 863 l 193 924 l 282 888 z "},"ç":{"ha":597,"x_min":72,"x_max":569,"o":"m 72 0 m 569 6 l 354 -6 l 83 83 l 72 426 l 190 664 l 386 731 l 536 644 l 461 449 l 418 471 l 461 600 l 407 644 l 407 644 l 244 568 l 169 396 l 190 147 l 354 83 l 536 114 l 569 6 m 388 28 l 354 -56 l 446 -99 l 403 -224 l 299 -276 l 178 -251 l 210 -178 l 267 -215 l 336 -174 l 335 -112 l 239 -79 l 332 39 l 388 28 z "},"è":{"ha":701,"x_min":69,"x_max":632,"o":"m 69 0 m 189 372 l 514 424 l 475 606 l 382 640 l 200 579 l 188 367 l 189 372 m 471 699 l 582 601 l 622 363 l 188 293 l 263 72 l 426 76 l 621 135 l 632 25 l 240 -31 l 69 222 l 89 579 l 275 714 l 471 699 m 342 781 l 283 868 l 215 974 l 276 969 l 342 974 l 401 781 l 342 781 z "},"é":{"ha":701,"x_min":69,"x_max":632,"o":"m 69 0 m 189 372 l 514 424 l 475 606 l 382 640 l 200 579 l 188 367 l 189 372 m 471 699 l 582 601 l 622 363 l 188 293 l 263 72 l 426 76 l 621 135 l 632 25 l 240 -31 l 69 222 l 89 579 l 275 714 l 471 699 m 313 779 l 372 972 l 438 968 l 499 972 l 431 867 l 372 779 l 313 779 z "},"ê":{"ha":701,"x_min":69,"x_max":632,"o":"m 69 0 m 189 372 l 514 424 l 475 606 l 382 640 l 200 579 l 188 367 l 189 372 m 471 699 l 582 601 l 622 363 l 188 293 l 263 72 l 426 76 l 621 135 l 632 25 l 240 -31 l 69 222 l 89 579 l 275 714 l 471 699 m 336 979 l 572 776 l 503 778 l 447 781 l 340 889 l 253 774 l 188 778 l 128 789 l 335 981 l 336 981 l 336 979 z "},"ë":{"ha":701,"x_min":69,"x_max":632,"o":"m 69 0 m 189 372 l 514 424 l 475 606 l 382 640 l 200 579 l 188 367 l 189 372 m 471 699 l 582 601 l 622 363 l 188 293 l 263 72 l 426 76 l 621 135 l 632 25 l 240 -31 l 69 222 l 89 579 l 275 714 l 471 699 m 536 894 l 531 819 l 453 786 l 411 869 l 450 913 l 536 894 m 293 888 l 299 821 l 204 789 l 164 863 l 204 924 l 293 888 z "},"ì":{"ha":386,"x_min":42,"x_max":358,"o":"m 358 -18 l 81 -21 l 74 19 l 147 49 l 153 636 l 51 671 l 42 706 l 331 722 l 344 694 l 260 647 l 254 50 l 353 21 l 358 -18 m 178 793 l 119 881 l 51 986 l 113 982 l 178 986 l 238 793 l 178 793 z "},"í":{"ha":386,"x_min":42,"x_max":358,"o":"m 358 -18 l 81 -21 l 74 19 l 147 49 l 153 636 l 51 671 l 42 706 l 331 722 l 344 694 l 260 647 l 254 50 l 353 21 l 358 -18 m 149 792 l 208 985 l 274 981 l 335 985 l 267 879 l 208 792 l 149 792 z "},"î":{"ha":386,"x_min":-22,"x_max":422,"o":"m 358 -18 l 81 -21 l 74 19 l 147 49 l 153 636 l 51 671 l 42 706 l 331 722 l 344 694 l 260 647 l 254 50 l 353 21 l 358 -18 m 186 978 l 422 775 l 353 776 l 297 779 l 190 888 l 103 772 l 38 776 l -22 788 l 185 979 l 186 979 l 186 978 z "},"ï":{"ha":386,"x_min":0,"x_max":372,"o":"m 358 -18 l 81 -21 l 74 19 l 147 49 l 153 636 l 51 671 l 42 706 l 331 722 l 344 694 l 260 647 l 254 50 l 353 21 l 358 -18 m 372 921 l 367 846 l 289 813 l 247 896 l 286 939 l 372 921 m 129 914 l 135 847 l 40 815 l 0 889 l 40 950 l 129 914 z "},"ò":{"ha":693,"x_min":42,"x_max":651,"o":"m 42 0 m 260 638 l 138 479 l 164 206 l 318 60 l 422 61 l 553 317 l 494 557 l 401 626 l 260 638 m 449 731 l 596 594 l 651 276 l 456 -31 l 261 -39 l 57 207 l 42 524 l 215 731 l 449 731 m 324 793 l 265 881 l 197 986 l 258 982 l 324 986 l 383 793 l 324 793 z "},"ó":{"ha":693,"x_min":42,"x_max":651,"o":"m 42 0 m 260 638 l 138 479 l 164 206 l 318 60 l 422 61 l 553 317 l 494 557 l 401 626 l 260 638 m 449 731 l 596 594 l 651 276 l 456 -31 l 261 -39 l 57 207 l 42 524 l 215 731 l 449 731 m 294 792 l 354 985 l 419 981 l 481 985 l 413 879 l 354 792 l 294 792 z "},"ô":{"ha":693,"x_min":42,"x_max":651,"o":"m 42 0 m 260 638 l 138 479 l 164 206 l 318 60 l 422 61 l 553 317 l 494 557 l 401 626 l 260 638 m 449 731 l 596 594 l 651 276 l 456 -31 l 261 -39 l 57 207 l 42 524 l 215 731 l 449 731 m 318 993 l 554 790 l 485 792 l 429 794 l 322 903 l 235 788 l 169 792 l 110 803 l 317 994 l 318 994 l 318 993 z "},"ö":{"ha":693,"x_min":42,"x_max":651,"o":"m 42 0 m 260 638 l 138 479 l 164 206 l 318 60 l 422 61 l 553 317 l 494 557 l 401 626 l 260 638 m 449 731 l 596 594 l 651 276 l 456 -31 l 261 -39 l 57 207 l 42 524 l 215 731 l 449 731 m 518 908 l 513 833 l 435 800 l 393 883 l 432 926 l 518 908 m 275 901 l 281 835 l 186 803 l 146 876 l 186 938 l 275 901 z "},"÷":{"ha":640,"x_min":28,"x_max":613,"o":"m 613 493 l 613 406 l 488 413 l 181 411 l 28 411 l 31 494 l 190 490 l 476 501 l 613 493 m 367 794 l 408 699 l 331 599 l 208 675 l 244 789 l 367 794 m 286 288 l 393 260 l 396 133 l 275 107 l 217 211 l 286 288 z "},"ø":{"ha":693,"x_min":42,"x_max":651,"o":"m 168 -51 l 86 -29 l 154 89 l 57 207 l 42 524 l 215 731 l 449 731 l 496 686 l 538 758 l 611 722 l 558 629 l 596 594 l 651 276 l 456 -31 l 261 -39 l 210 22 l 168 -51 m 260 638 l 138 479 l 164 206 l 200 171 l 443 594 l 401 626 l 260 638 m 318 60 l 422 61 l 553 317 l 501 529 l 263 113 l 318 60 z "},"ù":{"ha":833,"x_min":42,"x_max":861,"o":"m 42 0 m 861 75 l 657 -22 l 579 -1 l 554 79 l 536 175 l 290 -21 l 146 29 l 104 193 l 100 621 l 42 646 l 46 679 l 294 685 l 288 635 l 215 606 l 215 214 l 267 90 l 357 140 l 525 233 l 547 619 l 486 647 l 490 685 l 710 685 l 717 638 l 644 610 l 640 94 l 661 60 l 800 181 l 861 75 m 367 767 l 308 854 l 240 960 l 301 956 l 367 960 l 426 767 l 367 767 z "},"ú":{"ha":833,"x_min":42,"x_max":861,"o":"m 42 0 m 861 75 l 657 -22 l 579 -1 l 554 79 l 536 175 l 290 -21 l 146 29 l 104 193 l 100 621 l 42 646 l 46 679 l 294 685 l 288 635 l 215 606 l 215 214 l 267 90 l 357 140 l 525 233 l 547 619 l 486 647 l 490 685 l 710 685 l 717 638 l 644 610 l 640 94 l 661 60 l 800 181 l 861 75 m 338 765 l 397 958 l 463 954 l 524 958 l 456 853 l 397 765 l 338 765 z "},"û":{"ha":833,"x_min":42,"x_max":861,"o":"m 42 0 m 861 75 l 657 -22 l 579 -1 l 554 79 l 536 175 l 290 -21 l 146 29 l 104 193 l 100 621 l 42 646 l 46 679 l 294 685 l 288 635 l 215 606 l 215 214 l 267 90 l 357 140 l 525 233 l 547 619 l 486 647 l 490 685 l 710 685 l 717 638 l 644 610 l 640 94 l 661 60 l 800 181 l 861 75 m 375 979 l 611 776 l 542 778 l 486 781 l 379 889 l 292 774 l 226 778 l 167 789 l 374 981 l 375 981 l 375 979 z "},"ü":{"ha":833,"x_min":42,"x_max":861,"o":"m 42 0 m 861 75 l 657 -22 l 579 -1 l 554 79 l 536 175 l 290 -21 l 146 29 l 104 193 l 100 621 l 42 646 l 46 679 l 294 685 l 288 635 l 215 606 l 215 214 l 267 90 l 357 140 l 525 233 l 547 619 l 486 647 l 490 685 l 710 685 l 717 638 l 644 610 l 640 94 l 661 60 l 800 181 l 861 75 m 561 894 l 556 819 l 478 786 l 436 869 l 475 913 l 561 894 m 318 888 l 324 821 l 229 789 l 189 863 l 229 924 l 318 888 z "},"ý":{"ha":707,"x_min":0,"x_max":707,"o":"m 0 0 m 631 644 l 336 -204 l 176 -272 l 3 -182 l 40 -90 l 186 -182 l 263 -161 l 303 -47 l 339 75 l 267 36 l 79 617 l 17 622 l 0 681 l 182 697 l 244 410 l 350 106 l 522 650 l 458 669 l 460 706 l 699 707 l 707 672 l 631 644 m 301 751 l 361 944 l 426 940 l 488 944 l 419 839 l 361 751 l 301 751 z "},"ÿ":{"ha":707,"x_min":0,"x_max":707,"o":"m 0 0 m 631 644 l 336 -204 l 176 -272 l 3 -182 l 40 -90 l 186 -182 l 263 -161 l 303 -47 l 339 75 l 267 36 l 79 617 l 17 622 l 0 681 l 182 697 l 244 410 l 350 106 l 522 650 l 458 669 l 460 706 l 699 707 l 707 672 l 631 644 m 525 894 l 519 819 l 442 786 l 400 869 l 439 913 l 525 894 m 282 888 l 288 821 l 193 789 l 153 863 l 193 924 l 282 888 z "},"Þ":{"ha":896,"x_min":42,"x_max":854,"o":"m 264 286 l 608 254 l 761 450 l 682 731 l 401 776 l 246 739 l 264 286 m 254 169 l 254 46 l 343 18 l 349 -35 l 47 -31 l 42 7 l 147 46 l 146 972 l 78 988 l 74 1031 l 307 1036 l 306 993 l 239 972 l 242 850 l 389 861 l 789 800 l 854 375 l 638 158 l 254 169 z "},"þ":{"ha":783,"x_min":39,"x_max":742,"o":"m 615 347 l 539 571 l 383 592 l 239 540 l 247 181 l 392 125 l 576 207 l 615 347 m 39 938 l 44 979 l 325 981 l 331 926 l 238 894 l 236 632 l 376 683 l 614 681 l 742 322 l 597 71 l 374 28 l 233 92 l 240 -221 l 333 -253 l 328 -307 l 47 -306 l 42 -264 l 128 -229 l 119 639 l 125 903 l 39 938 z "},"Ś":{"ha":803,"x_min":35,"x_max":768,"o":"m 35 0 m 568 978 l 656 918 l 694 972 l 768 914 l 638 757 l 585 806 l 518 892 l 310 858 l 200 747 l 285 590 l 644 496 l 729 392 l 704 121 l 417 -12 l 163 57 l 119 -12 l 35 7 l 119 193 l 190 172 l 410 101 l 626 188 l 585 403 l 158 490 l 79 781 l 226 953 l 568 978 m 364 1028 l 424 1221 l 489 1217 l 550 1221 l 482 1115 l 424 1028 l 364 1028 z "},"Ť":{"ha":799,"x_min":29,"x_max":772,"o":"m 29 0 m 772 971 l 751 818 l 675 839 l 675 893 l 444 893 l 476 63 l 544 42 l 544 -12 l 260 -3 l 260 32 l 357 63 l 346 893 l 269 893 l 129 872 l 129 818 l 40 807 l 29 971 l 236 971 l 772 971 m 399 1031 l 163 1222 l 232 1232 l 288 1243 l 394 1121 l 482 1222 l 547 1218 l 607 1207 l 400 1029 l 399 1029 l 399 1031 z "},"Ź":{"ha":778,"x_min":42,"x_max":736,"o":"m 42 3 m 92 993 l 165 968 l 714 978 l 725 886 l 193 131 l 224 104 l 588 129 l 599 204 l 713 213 l 736 18 l 60 3 l 42 104 l 574 865 l 197 869 l 174 803 l 69 825 l 92 993 m 365 1042 l 425 1235 l 490 1231 l 551 1235 l 483 1129 l 425 1042 l 365 1042 z "},"ś":{"ha":657,"x_min":42,"x_max":615,"o":"m 42 0 m 344 725 l 500 661 l 556 715 l 615 674 l 510 532 l 460 579 l 232 633 l 158 547 l 254 413 l 533 343 l 572 107 l 389 -7 l 144 49 l 111 -8 l 42 4 l 89 150 l 372 83 l 460 149 l 426 265 l 129 367 l 49 532 l 115 686 l 344 725 m 276 779 l 336 972 l 401 968 l 463 972 l 394 867 l 336 779 l 276 779 z "},"ť":{"ha":681,"x_min":25,"x_max":667,"o":"m 25 0 m 492 43 l 264 0 l 156 107 l 156 250 l 156 608 l 89 597 l 35 585 l 25 651 l 124 683 l 143 683 l 143 814 l 124 858 l 242 858 l 253 738 l 253 693 l 447 717 l 447 608 l 253 618 l 253 161 l 318 88 l 492 119 l 492 43 m 596 865 l 667 806 l 628 701 l 544 599 l 507 608 l 586 722 l 531 732 l 517 831 l 596 865 z "},"ź":{"ha":669,"x_min":56,"x_max":614,"o":"m 56 4 m 169 699 l 588 714 l 592 606 l 188 85 l 483 114 l 499 197 l 613 206 l 614 4 l 56 14 l 67 103 l 460 611 l 179 628 l 153 569 l 101 579 l 104 714 l 169 699 m 297 765 l 357 958 l 422 954 l 483 958 l 415 853 l 357 765 l 297 765 z "},"Ł":{"ha":665,"x_min":1,"x_max":638,"o":"m 629 10 l 79 -32 l 76 -3 l 153 44 l 143 410 l 1 340 l 4 456 l 139 525 l 129 903 l 42 932 l 47 969 l 351 971 l 358 921 l 276 896 l 275 596 l 433 678 l 433 554 l 275 475 l 274 60 l 528 114 l 510 207 l 636 222 l 638 135 l 629 10 z "},"ł":{"ha":408,"x_min":63,"x_max":389,"o":"m 367 1 l 74 7 l 69 43 l 169 72 l 169 407 l 68 340 l 63 442 l 169 506 l 169 906 l 96 890 l 101 982 l 278 986 l 272 567 l 389 636 l 389 554 l 271 475 l 265 74 l 360 54 l 367 1 z "},"ň":{"ha":886,"x_min":61,"x_max":904,"o":"m 61 0 m 904 99 l 672 -18 l 589 25 l 589 447 l 546 574 l 440 585 l 281 353 l 281 68 l 356 46 l 344 -7 l 92 4 l 81 35 l 154 68 l 154 574 l 61 626 l 133 722 l 261 585 l 281 457 l 419 679 l 599 669 l 704 479 l 682 108 l 704 89 l 831 183 l 904 99 m 429 740 l 193 932 l 263 942 l 318 953 l 425 831 l 513 932 l 578 928 l 638 917 l 431 739 l 429 739 l 429 740 z "},"ő":{"ha":693,"x_min":42,"x_max":651,"o":"m 42 0 m 260 638 l 138 479 l 164 206 l 318 60 l 422 61 l 553 317 l 494 557 l 401 626 l 260 638 m 449 731 l 596 594 l 651 276 l 456 -31 l 261 -39 l 57 207 l 42 524 l 215 731 l 449 731 m 214 793 l 296 972 l 347 968 l 408 971 l 321 867 l 260 793 l 214 793 m 367 790 l 449 971 l 500 965 l 561 969 l 474 864 l 413 790 l 367 790 z "},"ř":{"ha":576,"x_min":65,"x_max":549,"o":"m 65 4 m 549 572 l 464 500 l 390 607 l 278 569 l 244 496 l 250 79 l 332 53 l 324 4 l 78 4 l 74 42 l 139 68 l 138 624 l 69 663 l 129 739 l 231 674 l 239 626 l 310 654 l 450 689 l 549 572 m 301 754 l 65 946 l 135 956 l 190 967 l 297 844 l 385 946 l 450 942 l 510 931 l 303 753 l 301 753 l 301 754 z "},"ű":{"ha":833,"x_min":42,"x_max":861,"o":"m 42 0 m 861 75 l 657 -22 l 579 -1 l 554 79 l 536 175 l 290 -21 l 146 29 l 104 193 l 100 621 l 42 646 l 46 679 l 294 685 l 288 635 l 215 606 l 215 214 l 267 90 l 357 140 l 525 233 l 547 619 l 486 647 l 490 685 l 710 685 l 717 638 l 644 610 l 640 94 l 661 60 l 800 181 l 861 75 m 243 765 l 325 944 l 376 940 l 438 943 l 350 839 l 289 765 l 243 765 m 396 763 l 478 943 l 529 938 l 590 942 l 503 836 l 442 763 l 396 763 z "},"ń":{"ha":886,"x_min":61,"x_max":904,"o":"m 61 0 m 904 99 l 672 -18 l 589 25 l 589 447 l 546 574 l 440 585 l 281 353 l 281 68 l 356 46 l 344 -7 l 92 4 l 81 35 l 154 68 l 154 574 l 61 626 l 133 722 l 261 585 l 281 457 l 419 679 l 599 669 l 704 479 l 682 108 l 704 89 l 831 183 l 904 99 m 364 751 l 424 944 l 489 940 l 550 944 l 482 839 l 424 751 l 364 751 z "},"đ":{"ha":764,"x_min":42,"x_max":771,"o":"m 542 7 l 485 133 l 393 10 l 182 22 l 42 303 l 125 628 l 326 708 l 513 632 l 515 794 l 333 794 l 326 904 l 518 900 l 519 979 l 607 1083 l 685 1019 l 626 971 l 624 899 l 771 897 l 763 789 l 621 793 l 603 86 l 736 111 l 764 25 l 542 7 m 497 554 l 335 615 l 186 567 l 150 294 l 274 90 l 353 108 l 490 253 l 497 554 z "},"ď":{"ha":903,"x_min":42,"x_max":889,"o":"m 42 7 m 497 554 l 335 615 l 186 567 l 150 294 l 274 90 l 353 108 l 490 253 l 497 554 m 542 7 l 485 133 l 393 10 l 182 22 l 42 303 l 125 628 l 326 708 l 513 632 l 519 979 l 607 1083 l 685 1019 l 626 971 l 603 86 l 736 111 l 764 25 l 542 7 m 818 989 l 889 929 l 850 825 l 767 722 l 729 732 l 808 846 l 753 856 l 739 954 l 818 989 z "},"ě":{"ha":701,"x_min":69,"x_max":632,"o":"m 69 0 m 189 372 l 514 424 l 475 606 l 382 640 l 200 579 l 188 367 l 189 372 m 471 699 l 582 601 l 622 363 l 188 293 l 263 72 l 426 76 l 621 135 l 632 25 l 240 -31 l 69 222 l 89 579 l 275 714 l 471 699 m 364 754 l 128 946 l 197 956 l 253 967 l 360 844 l 447 946 l 513 942 l 572 931 l 365 753 l 364 753 l 364 754 z "},"č":{"ha":597,"x_min":72,"x_max":569,"o":"m 72 0 m 569 6 l 354 -6 l 83 83 l 72 426 l 190 664 l 386 731 l 536 644 l 461 449 l 418 471 l 461 600 l 407 644 l 407 644 l 244 568 l 169 396 l 190 147 l 354 83 l 536 114 l 569 6 m 326 754 l 90 946 l 160 956 l 215 967 l 322 844 l 410 946 l 475 942 l 535 931 l 328 753 l 326 753 l 326 754 z "},"ć":{"ha":597,"x_min":72,"x_max":569,"o":"m 72 0 m 569 6 l 354 -6 l 83 83 l 72 426 l 190 664 l 386 731 l 536 644 l 461 449 l 418 471 l 461 600 l 407 644 l 407 644 l 244 568 l 169 396 l 190 147 l 354 83 l 536 114 l 569 6 m 261 779 l 321 972 l 386 968 l 447 972 l 379 867 l 321 779 l 261 779 z "},"ĺ":{"ha":408,"x_min":69,"x_max":367,"o":"m 69 1 m 367 1 l 74 7 l 69 43 l 169 72 l 169 906 l 96 890 l 101 982 l 278 986 l 265 74 l 360 54 l 367 1 m 153 1042 l 213 1235 l 278 1231 l 339 1235 l 271 1129 l 213 1042 l 153 1042 z "},"ă":{"ha":721,"x_min":69,"x_max":693,"o":"m 69 0 m 343 360 l 188 256 l 183 100 l 239 71 q 290 74 267 72 q 326 77 310 75 q 342 82 342 79 q 347 90 342 82 q 362 112 353 99 q 382 141 371 125 q 406 174 393 157 q 471 263 433 213 l 461 364 l 343 360 m 254 735 l 568 661 l 574 90 l 692 82 l 693 18 l 521 1 l 463 124 l 390 10 l 156 -35 l 69 69 l 75 281 l 313 435 l 460 454 l 471 606 l 239 636 l 171 518 l 94 599 l 108 633 l 254 735 m 331 844 l 365 818 l 507 986 l 599 901 l 376 776 l 331 776 l 108 925 l 178 974 l 331 844 z "},"ŕ":{"ha":576,"x_min":69,"x_max":549,"o":"m 69 4 m 549 572 l 464 500 l 390 607 l 278 569 l 244 496 l 250 79 l 332 53 l 324 4 l 78 4 l 74 42 l 139 68 l 138 624 l 69 663 l 129 739 l 231 674 l 239 626 l 310 654 l 450 689 l 549 572 m 250 765 l 310 958 l 375 954 l 436 958 l 368 853 l 310 765 l 250 765 z "},"Ű":{"ha":967,"x_min":42,"x_max":925,"o":"m 42 0 m 919 935 l 843 908 l 817 165 l 676 0 l 321 -14 l 158 161 l 126 853 l 119 911 l 42 932 l 43 972 l 336 975 l 340 935 l 249 907 l 253 239 l 340 99 l 628 108 l 713 229 l 701 917 l 636 938 l 638 975 l 925 985 l 919 935 m 365 1056 l 447 1235 l 499 1231 l 560 1233 l 472 1129 l 411 1056 l 365 1056 m 518 1053 l 600 1233 l 651 1228 l 713 1232 l 625 1126 l 564 1053 l 518 1053 z "},"Ř":{"ha":990,"x_min":42,"x_max":990,"o":"m 42 4 m 708 664 l 658 843 l 454 879 l 311 857 l 335 549 l 585 532 l 708 664 m 990 171 l 818 17 l 710 35 l 636 361 l 506 457 l 325 431 l 329 86 l 417 57 l 428 4 l 129 8 l 126 46 l 208 78 l 192 813 l 142 867 l 42 878 l 46 953 l 160 956 l 218 932 l 253 963 l 631 957 l 806 796 l 781 564 l 660 472 l 763 374 l 772 124 l 803 113 l 903 263 l 990 171 m 467 1017 l 231 1208 l 300 1218 l 356 1229 l 463 1107 l 550 1208 l 615 1204 l 675 1193 l 468 1015 l 467 1015 l 467 1017 z "},"Ň":{"ha":1018,"x_min":42,"x_max":976,"o":"m 42 0 m 939 49 l 946 -1 l 654 4 l 650 39 l 719 67 l 251 765 l 258 68 l 329 44 l 335 -7 l 44 -1 l 42 33 l 156 78 l 146 903 l 56 928 l 57 968 l 358 971 l 364 931 l 285 907 l 753 192 l 767 908 l 668 933 l 669 974 l 969 975 l 976 938 l 883 908 l 838 81 l 939 49 m 508 1017 l 272 1208 l 342 1218 l 397 1229 l 504 1107 l 592 1208 l 657 1204 l 717 1193 l 510 1015 l 508 1015 l 508 1017 z "},"Ń":{"ha":1018,"x_min":42,"x_max":976,"o":"m 42 0 m 939 49 l 946 -1 l 654 4 l 650 39 l 719 67 l 251 765 l 258 68 l 329 44 l 335 -7 l 44 -1 l 42 33 l 156 78 l 146 903 l 56 928 l 57 968 l 358 971 l 364 931 l 285 907 l 753 192 l 767 908 l 668 933 l 669 974 l 969 975 l 976 938 l 883 908 l 838 81 l 939 49 m 471 1028 l 531 1221 l 596 1217 l 657 1221 l 589 1115 l 531 1028 l 471 1028 z "},"Đ":{"ha":911,"x_min":42,"x_max":869,"o":"m 869 657 l 825 211 l 603 -11 l 250 14 l 42 10 l 46 53 l 196 88 l 199 465 l 93 465 l 88 547 l 199 544 l 201 885 l 104 922 l 110 972 l 247 979 l 592 953 l 869 657 m 760 633 l 576 839 l 422 876 l 319 849 l 315 543 l 433 542 l 428 461 l 315 464 l 311 129 l 576 103 l 744 296 l 760 633 z "},"Ď":{"ha":911,"x_min":42,"x_max":869,"o":"m 42 0 m 760 633 l 576 839 l 422 876 l 319 849 l 311 129 l 576 103 l 744 296 l 760 633 m 869 657 l 825 211 l 603 -11 l 250 14 l 42 10 l 46 53 l 196 88 l 201 885 l 104 922 l 110 972 l 247 979 l 592 953 l 869 657 m 442 1017 l 206 1208 l 275 1218 l 331 1229 l 438 1107 l 525 1208 l 590 1204 l 650 1193 l 443 1015 l 442 1015 l 442 1017 z "},"Ő":{"ha":874,"x_min":69,"x_max":804,"o":"m 69 0 m 236 853 l 160 567 l 229 236 l 406 85 l 522 75 l 706 396 l 636 726 l 494 861 l 236 853 m 568 967 l 754 764 l 804 368 l 594 -10 l 347 -18 l 122 207 l 69 557 l 143 889 l 292 992 l 568 967 m 276 1042 l 358 1221 l 410 1217 l 471 1219 l 383 1115 l 322 1042 l 276 1042 m 429 1039 l 511 1219 l 563 1214 l 624 1218 l 536 1113 l 475 1039 l 429 1039 z "},"Ě":{"ha":869,"x_min":28,"x_max":800,"o":"m 28 0 m 800 -17 l 78 -7 l 71 40 l 210 65 l 163 893 l 39 936 l 28 985 l 775 967 l 776 788 l 706 790 l 685 878 l 308 879 l 282 844 l 289 546 l 717 517 l 704 456 l 293 447 l 289 332 l 360 96 l 711 82 l 728 194 l 799 203 l 800 -17 m 449 1031 l 213 1222 l 282 1232 l 338 1243 l 444 1121 l 532 1222 l 597 1218 l 657 1207 l 450 1029 l 449 1029 l 449 1031 z "},"Č":{"ha":694,"x_min":63,"x_max":667,"o":"m 63 0 m 590 97 l 635 -8 l 300 -31 l 85 110 l 63 735 l 225 969 l 494 1024 l 667 907 l 494 679 l 453 711 l 538 872 l 463 939 l 279 896 l 204 701 l 204 163 l 332 86 l 590 97 m 369 1044 l 133 1236 l 203 1246 l 258 1257 l 365 1135 l 453 1236 l 518 1232 l 578 1221 l 371 1043 l 369 1043 l 369 1044 z "},"Ć":{"ha":694,"x_min":63,"x_max":667,"o":"m 63 0 m 590 97 l 635 -8 l 300 -31 l 85 110 l 63 735 l 225 969 l 494 1024 l 667 907 l 494 679 l 453 711 l 538 872 l 463 939 l 279 896 l 204 701 l 204 163 l 332 86 l 590 97 m 304 1056 l 364 1249 l 429 1244 l 490 1249 l 422 1143 l 364 1056 l 304 1056 z "},"Ĺ":{"ha":665,"x_min":42,"x_max":638,"o":"m 42 0 m 629 10 l 79 -32 l 76 -3 l 153 44 l 129 903 l 42 932 l 47 969 l 351 971 l 358 921 l 276 896 l 274 60 l 528 114 l 510 207 l 636 222 l 638 135 l 629 10 m 169 1028 l 229 1221 l 294 1217 l 356 1221 l 288 1115 l 229 1028 l 169 1028 z "},"Ă":{"ha":856,"x_min":4,"x_max":854,"o":"m 4 0 m 854 0 l 585 0 l 553 33 l 661 64 l 618 260 l 585 324 l 240 281 l 218 206 l 197 64 l 283 33 l 283 -11 l 4 10 l 4 54 l 89 75 l 347 981 l 499 958 l 769 75 l 844 54 l 854 0 m 553 419 l 435 851 l 414 840 l 272 389 l 272 365 l 553 419 m 404 1107 l 439 1081 l 581 1249 l 672 1164 l 450 1039 l 404 1039 l 182 1188 l 251 1236 l 404 1107 z "},"Ŕ":{"ha":990,"x_min":42,"x_max":990,"o":"m 42 4 m 708 664 l 658 843 l 454 879 l 311 857 l 335 549 l 585 532 l 708 664 m 990 171 l 818 17 l 710 35 l 636 361 l 506 457 l 325 431 l 329 86 l 417 57 l 428 4 l 129 8 l 126 46 l 208 78 l 192 813 l 142 867 l 42 878 l 46 953 l 160 956 l 218 932 l 253 963 l 631 957 l 806 796 l 781 564 l 660 472 l 763 374 l 772 124 l 803 113 l 903 263 l 990 171 m 415 1028 l 475 1221 l 540 1217 l 601 1221 l 533 1115 l 475 1028 l 415 1028 z "},"Ľ":{"ha":665,"x_min":42,"x_max":638,"o":"m 42 0 m 629 10 l 79 -32 l 76 -3 l 153 44 l 129 903 l 42 932 l 47 969 l 351 971 l 358 921 l 276 896 l 274 60 l 528 114 l 510 207 l 636 222 l 638 135 l 629 10 m 499 989 l 569 929 l 531 825 l 447 722 l 410 732 l 489 846 l 433 856 l 419 954 l 499 989 z "},"ľ":{"ha":514,"x_min":69,"x_max":514,"o":"m 69 1 m 367 1 l 74 7 l 69 43 l 169 72 l 169 906 l 96 890 l 101 982 l 278 986 l 265 74 l 360 54 l 367 1 m 443 989 l 514 929 l 475 825 l 392 722 l 354 732 l 433 846 l 378 856 l 364 954 l 443 989 z "},"Ā":{"ha":856,"x_min":4,"x_max":854,"o":"m 4 0 m 854 0 l 585 0 l 553 33 l 661 64 l 618 260 l 585 324 l 240 281 l 218 206 l 197 64 l 283 33 l 283 -11 l 4 10 l 4 54 l 89 75 l 347 981 l 499 958 l 769 75 l 844 54 l 854 0 m 553 419 l 435 851 l 414 840 l 272 389 l 272 365 l 553 419 m 426 1142 l 600 1139 l 594 1058 l 458 1063 l 260 1063 l 254 1144 l 426 1142 z "},"Ē":{"ha":869,"x_min":28,"x_max":800,"o":"m 28 0 m 800 -17 l 78 -7 l 71 40 l 210 65 l 163 893 l 39 936 l 28 985 l 775 967 l 776 788 l 706 790 l 685 878 l 308 879 l 282 844 l 289 546 l 717 517 l 704 456 l 293 447 l 289 332 l 360 96 l 711 82 l 728 194 l 799 203 l 800 -17 m 433 1142 l 607 1139 l 601 1058 l 465 1063 l 267 1063 l 261 1144 l 433 1142 z "},"Ī":{"ha":392,"x_min":22,"x_max":368,"o":"m 22 0 m 335 28 l 338 -14 l 72 7 l 71 47 l 167 78 l 143 910 l 42 944 l 44 982 l 342 985 l 350 935 l 257 907 l 253 58 l 335 28 m 194 1156 l 368 1153 l 363 1072 l 226 1076 l 28 1076 l 22 1158 l 194 1156 z "},"Ō":{"ha":874,"x_min":69,"x_max":804,"o":"m 69 0 m 236 853 l 160 567 l 229 236 l 406 85 l 522 75 l 706 396 l 636 726 l 494 861 l 236 853 m 568 967 l 754 764 l 804 368 l 594 -10 l 347 -18 l 122 207 l 69 557 l 143 889 l 292 992 l 568 967 m 436 1156 l 610 1153 l 604 1072 l 468 1076 l 269 1076 l 264 1158 l 436 1156 z "},"Ū":{"ha":967,"x_min":42,"x_max":925,"o":"m 42 0 m 919 935 l 843 908 l 817 165 l 676 0 l 321 -14 l 158 161 l 126 853 l 119 911 l 42 932 l 43 972 l 336 975 l 340 935 l 249 907 l 253 239 l 340 99 l 628 108 l 713 229 l 701 917 l 636 938 l 638 975 l 925 985 l 919 935 m 482 1156 l 656 1153 l 650 1072 l 514 1076 l 315 1076 l 310 1158 l 482 1156 z "},"ā":{"ha":721,"x_min":69,"x_max":693,"o":"m 69 0 m 343 360 l 188 256 l 183 100 l 239 71 q 290 74 267 72 q 326 77 310 75 q 342 82 342 79 q 347 90 342 82 q 362 112 353 99 q 382 141 371 125 q 406 174 393 157 q 471 263 433 213 l 461 364 l 343 360 m 254 735 l 568 661 l 574 90 l 692 82 l 693 18 l 521 1 l 463 124 l 390 10 l 156 -35 l 69 69 l 75 281 l 313 435 l 460 454 l 471 606 l 239 636 l 171 518 l 94 599 l 108 633 l 254 735 m 353 893 l 526 890 l 521 810 l 385 814 l 186 814 l 181 896 l 353 893 z "},"ē":{"ha":701,"x_min":69,"x_max":632,"o":"m 69 0 m 189 372 l 514 424 l 475 606 l 382 640 l 200 579 l 188 367 l 189 372 m 471 699 l 582 601 l 622 363 l 188 293 l 263 72 l 426 76 l 621 135 l 632 25 l 240 -31 l 69 222 l 89 579 l 275 714 l 471 699 m 350 893 l 524 890 l 518 810 l 382 814 l 183 814 l 178 896 l 350 893 z "},"ī":{"ha":386,"x_min":13,"x_max":358,"o":"m 358 -18 l 81 -21 l 74 19 l 147 49 l 153 636 l 51 671 l 42 706 l 331 722 l 344 694 l 260 647 l 254 50 l 353 21 l 358 -18 m 185 906 l 358 903 l 353 822 l 217 826 l 18 826 l 13 908 l 185 906 z "},"ō":{"ha":693,"x_min":42,"x_max":651,"o":"m 42 0 m 260 638 l 138 479 l 164 206 l 318 60 l 422 61 l 553 317 l 494 557 l 401 626 l 260 638 m 449 731 l 596 594 l 651 276 l 456 -31 l 261 -39 l 57 207 l 42 524 l 215 731 l 449 731 m 346 907 l 519 904 l 514 824 l 378 828 l 179 828 l 174 910 l 346 907 z "},"ū":{"ha":833,"x_min":42,"x_max":861,"o":"m 42 0 m 861 75 l 657 -22 l 579 -1 l 554 79 l 536 175 l 290 -21 l 146 29 l 104 193 l 100 621 l 42 646 l 46 679 l 294 685 l 288 635 l 215 606 l 215 214 l 267 90 l 357 140 l 525 233 l 547 619 l 486 647 l 490 685 l 710 685 l 717 638 l 644 610 l 640 94 l 661 60 l 800 181 l 861 75 m 388 893 l 561 890 l 556 810 l 419 814 l 221 814 l 215 896 l 388 893 z "},"ı":{"ha":386,"x_min":42,"x_max":358,"o":"m 358 -18 l 81 -21 l 74 19 l 147 49 l 153 636 l 51 671 l 42 706 l 331 722 l 344 694 l 260 647 l 254 50 l 353 21 l 358 -18 z "},"ş":{"ha":657,"x_min":42,"x_max":615,"o":"m 42 0 m 344 725 l 500 661 l 556 715 l 615 674 l 510 532 l 460 579 l 232 633 l 158 547 l 254 413 l 533 343 l 572 107 l 389 -7 l 144 49 l 111 -8 l 42 4 l 89 150 l 372 83 l 460 149 l 426 265 l 129 367 l 49 532 l 115 686 l 344 725 m 363 28 l 329 -56 l 421 -99 l 378 -224 l 274 -276 l 153 -251 l 185 -178 l 242 -215 l 311 -174 l 310 -112 l 214 -79 l 307 39 l 363 28 z "},"Ş":{"ha":803,"x_min":35,"x_max":768,"o":"m 35 0 m 568 978 l 656 918 l 694 972 l 768 914 l 638 757 l 585 806 l 518 892 l 310 858 l 200 747 l 285 590 l 644 496 l 729 392 l 704 121 l 417 -12 l 163 57 l 119 -12 l 35 7 l 119 193 l 190 172 l 410 101 l 626 188 l 585 403 l 158 490 l 79 781 l 226 953 l 568 978 m 435 28 l 401 -56 l 493 -99 l 450 -224 l 346 -276 l 225 -251 l 257 -178 l 314 -215 l 383 -174 l 382 -112 l 286 -79 l 379 39 l 435 28 z "},"˜":{"ha":386,"x_min":0,"x_max":386,"o":"m 0 839 l 64 960 l 167 978 l 254 883 l 288 896 l 301 967 l 386 969 l 365 881 l 308 818 l 226 806 l 135 906 l 106 893 l 96 826 l 0 839 z "},"Ñ":{"ha":1018,"x_min":42,"x_max":976,"o":"m 42 0 m 939 49 l 946 -1 l 654 4 l 650 39 l 719 67 l 251 765 l 258 68 l 329 44 l 335 -7 l 44 -1 l 42 33 l 156 78 l 146 903 l 56 928 l 57 968 l 358 971 l 364 931 l 285 907 l 753 192 l 767 908 l 668 933 l 669 974 l 969 975 l 976 938 l 883 908 l 838 81 l 939 49 m 328 1061 l 392 1182 l 494 1200 l 582 1106 l 615 1118 l 629 1189 l 714 1192 l 693 1103 l 636 1040 l 554 1028 l 463 1128 l 433 1115 l 424 1049 l 328 1061 z "},"Ã":{"ha":856,"x_min":4,"x_max":854,"o":"m 4 0 m 854 0 l 585 0 l 553 33 l 661 64 l 618 260 l 585 324 l 240 281 l 218 206 l 197 64 l 283 33 l 283 -11 l 4 10 l 4 54 l 89 75 l 347 981 l 499 958 l 769 75 l 844 54 l 854 0 m 553 419 l 435 851 l 414 840 l 272 389 l 272 365 l 553 419 m 219 1061 l 283 1182 l 386 1200 l 474 1106 l 507 1118 l 521 1189 l 606 1192 l 585 1103 l 528 1040 l 446 1028 l 354 1128 l 325 1115 l 315 1049 l 219 1061 z "},"Õ":{"ha":874,"x_min":69,"x_max":804,"o":"m 69 0 m 236 853 l 160 567 l 229 236 l 406 85 l 522 75 l 706 396 l 636 726 l 494 861 l 236 853 m 568 967 l 754 764 l 804 368 l 594 -10 l 347 -18 l 122 207 l 69 557 l 143 889 l 292 992 l 568 967 m 242 1075 l 306 1196 l 408 1214 l 496 1119 l 529 1132 l 543 1203 l 628 1206 l 607 1117 l 550 1054 l 468 1042 l 376 1142 l 347 1129 l 338 1063 l 242 1075 z "},"Ğ":{"ha":818,"x_min":42,"x_max":749,"o":"m 42 0 m 461 354 l 688 326 l 683 3 l 208 -1 l 42 217 l 210 885 l 439 974 l 626 975 l 749 906 l 599 643 l 535 656 l 611 844 l 506 868 l 279 782 l 175 203 l 282 115 l 507 83 l 578 157 l 572 268 l 476 289 l 461 354 m 428 1107 l 463 1081 l 604 1249 l 696 1164 l 474 1039 l 428 1039 l 206 1188 l 275 1236 l 428 1107 z "},"ã":{"ha":721,"x_min":69,"x_max":693,"o":"m 69 0 m 343 360 l 188 256 l 183 100 l 239 71 q 290 74 267 72 q 326 77 310 75 q 342 82 342 79 q 347 90 342 82 q 362 112 353 99 q 382 141 371 125 q 406 174 393 157 q 471 263 433 213 l 461 364 l 343 360 m 254 735 l 568 661 l 574 90 l 692 82 l 693 18 l 521 1 l 463 124 l 390 10 l 156 -35 l 69 69 l 75 281 l 313 435 l 460 454 l 471 606 l 239 636 l 171 518 l 94 599 l 108 633 l 254 735 m 160 813 l 224 933 l 326 951 l 414 857 l 447 869 l 461 940 l 546 943 l 525 854 l 468 792 l 386 779 l 294 879 l 265 867 l 256 800 l 160 813 z "},"ğ":{"ha":707,"x_min":56,"x_max":665,"o":"m 56 0 m 164 469 l 268 326 l 468 293 l 554 457 l 503 585 l 306 615 l 210 571 l 164 469 m 200 260 l 172 104 l 461 89 l 557 79 l 621 -115 l 129 -239 l 56 -65 l 153 -87 l 160 -164 l 511 -44 l 490 -1 l 101 44 l 64 142 l 122 324 l 71 386 l 75 542 l 214 685 l 443 689 l 469 668 l 650 786 l 665 721 l 536 621 l 568 597 l 661 482 l 557 217 l 251 221 l 200 260 m 331 831 l 365 804 l 507 972 l 599 888 l 376 763 l 331 763 l 108 911 l 178 960 l 331 831 z "},"õ":{"ha":693,"x_min":42,"x_max":651,"o":"m 42 0 m 260 638 l 138 479 l 164 206 l 318 60 l 422 61 l 553 317 l 494 557 l 401 626 l 260 638 m 449 731 l 596 594 l 651 276 l 456 -31 l 261 -39 l 57 207 l 42 524 l 215 731 l 449 731 m 153 813 l 217 933 l 319 951 l 407 857 l 440 869 l 454 940 l 539 943 l 518 854 l 461 792 l 379 779 l 288 879 l 258 867 l 249 800 l 153 813 z "},"ñ":{"ha":886,"x_min":61,"x_max":904,"o":"m 61 0 m 904 99 l 672 -18 l 589 25 l 589 447 l 546 574 l 440 585 l 281 353 l 281 68 l 356 46 l 344 -7 l 92 4 l 81 35 l 154 68 l 154 574 l 61 626 l 133 722 l 261 585 l 281 457 l 419 679 l 599 669 l 704 479 l 682 108 l 704 89 l 831 183 l 904 99 m 250 785 l 314 906 l 417 924 l 504 829 l 538 842 l 551 913 l 636 915 l 615 826 l 558 764 l 476 751 l 385 851 l 356 839 l 346 772 l 250 785 z "},"˙":{"ha":153,"x_min":0,"x_max":153,"o":"m 47 811 l 0 906 l 57 960 l 146 949 l 153 856 l 47 811 z "},"Ż":{"ha":778,"x_min":42,"x_max":736,"o":"m 42 3 m 92 993 l 165 968 l 714 978 l 725 886 l 193 131 l 224 104 l 588 129 l 599 204 l 713 213 l 736 18 l 60 3 l 42 104 l 574 865 l 197 869 l 174 803 l 69 825 l 92 993 m 374 1033 l 326 1128 l 383 1182 l 472 1171 l 479 1078 l 374 1033 z "},"ż":{"ha":669,"x_min":56,"x_max":614,"o":"m 56 4 m 169 699 l 588 714 l 592 606 l 188 85 l 483 114 l 499 197 l 613 206 l 614 4 l 56 14 l 67 103 l 460 611 l 179 628 l 153 569 l 101 579 l 104 714 l 169 699 m 319 771 l 272 865 l 329 919 l 418 908 l 425 815 l 319 771 z "},"˛":{"ha":285,"x_min":0,"x_max":285,"o":"m 158 14 l 285 14 l 285 0 l 131 -69 l 89 -125 l 88 -174 l 158 -208 l 242 -194 l 242 -264 l 125 -276 l 21 -224 l 0 -125 l 75 -28 l 158 0 l 158 14 z "},"Ą":{"ha":856,"x_min":4,"x_max":856,"o":"m 4 0 m 854 0 l 585 0 l 553 33 l 661 64 l 618 260 l 585 324 l 240 281 l 218 206 l 197 64 l 283 33 l 283 -11 l 4 10 l 4 54 l 89 75 l 347 981 l 499 958 l 769 75 l 844 54 l 854 0 m 553 419 l 435 851 l 414 840 l 272 389 l 272 365 l 553 419 m 729 14 l 856 14 l 856 0 l 701 -69 l 660 -125 l 658 -174 l 729 -208 l 813 -194 l 813 -264 l 696 -276 l 592 -224 l 571 -125 l 646 -28 l 729 0 l 729 14 z "},"ą":{"ha":721,"x_min":69,"x_max":693,"o":"m 567 6 l 521 1 l 463 124 l 390 10 l 156 -35 l 69 69 l 75 281 l 313 435 l 460 454 l 471 606 l 239 636 l 171 518 l 94 599 l 108 633 l 254 735 l 568 661 l 574 90 l 692 82 l 693 28 l 693 0 l 539 -69 l 497 -125 l 496 -174 l 567 -208 l 650 -194 l 650 -264 l 533 -276 l 429 -224 l 408 -125 l 483 -28 l 567 0 l 567 6 m 343 360 l 188 256 l 183 100 l 239 71 q 290 74 267 72 q 326 77 310 75 q 342 82 342 79 q 347 90 342 82 q 362 112 353 99 q 382 141 371 125 q 406 174 393 157 q 471 263 433 213 l 461 364 l 343 360 z "},"Ę":{"ha":869,"x_min":28,"x_max":800,"o":"m 28 0 m 800 -17 l 78 -7 l 71 40 l 210 65 l 163 893 l 39 936 l 28 985 l 775 967 l 776 788 l 706 790 l 685 878 l 308 879 l 282 844 l 289 546 l 717 517 l 704 456 l 293 447 l 289 332 l 360 96 l 711 82 l 728 194 l 799 203 l 800 -17 m 507 14 l 633 14 l 633 0 l 479 -69 l 438 -125 l 436 -174 l 507 -208 l 590 -194 l 590 -264 l 474 -276 l 369 -224 l 349 -125 l 424 -28 l 507 0 l 507 14 z "},"ę":{"ha":701,"x_min":69,"x_max":632,"o":"m 471 699 l 582 601 l 622 363 l 188 293 l 263 72 l 426 76 l 621 135 l 632 25 l 526 10 l 381 -69 l 339 -125 l 338 -174 l 408 -208 l 492 -194 l 492 -264 l 375 -276 l 271 -224 l 250 -125 l 324 -39 l 349 -15 l 240 -31 l 69 222 l 89 579 l 275 714 l 471 699 m 189 372 l 514 424 l 475 606 l 382 640 l 200 579 l 188 367 l 189 372 z "},"˚":{"ha":243,"x_min":0,"x_max":243,"o":"m 83 913 l 71 832 l 106 792 l 161 804 l 186 878 l 147 921 l 83 913 m 185 975 l 243 910 l 232 779 l 104 721 l 13 786 l 0 885 l 54 971 l 185 975 z "},"Å":{"ha":856,"x_min":0,"x_max":856,"o":"m 490 1169 l 549 1104 l 538 974 l 500 957 l 764 69 l 846 56 l 856 1 l 578 -3 l 553 31 l 640 61 l 599 247 l 568 296 l 232 258 l 218 204 l 193 58 l 275 26 l 281 -17 l 3 7 l 0 50 l 83 75 l 344 961 l 318 981 l 306 1079 l 360 1165 l 490 1169 m 539 408 l 436 828 l 411 818 l 282 390 l 286 360 l 539 408 m 389 1107 l 376 1026 l 411 986 l 467 999 l 492 1072 l 453 1115 l 389 1107 z "},"å":{"ha":721,"x_min":69,"x_max":693,"o":"m 69 0 m 343 360 l 188 256 l 183 100 l 239 71 q 290 74 267 72 q 326 77 310 75 q 342 82 342 79 q 347 90 342 82 q 362 112 353 99 q 382 141 371 125 q 406 174 393 157 q 471 263 433 213 l 461 364 l 343 360 m 254 735 l 568 661 l 574 90 l 692 82 l 693 18 l 521 1 l 463 124 l 390 10 l 156 -35 l 69 69 l 75 281 l 313 435 l 460 454 l 471 606 l 239 636 l 171 518 l 94 599 l 108 633 l 254 735 m 329 940 l 317 860 l 351 819 l 407 832 l 432 906 l 393 949 l 329 940 m 431 1003 l 489 938 l 478 807 l 350 749 l 258 814 l 246 913 l 300 999 l 431 1003 z "},"Ů":{"ha":967,"x_min":42,"x_max":925,"o":"m 42 0 m 919 935 l 843 908 l 817 165 l 676 0 l 321 -14 l 158 161 l 126 853 l 119 911 l 42 932 l 43 972 l 336 975 l 340 935 l 249 907 l 253 239 l 340 99 l 628 108 l 713 229 l 701 917 l 636 938 l 638 975 l 925 985 l 919 935 m 444 1149 l 432 1068 l 467 1028 l 522 1040 l 547 1114 l 508 1157 l 444 1149 m 546 1211 l 604 1146 l 593 1015 l 465 957 l 374 1022 l 361 1121 l 415 1207 l 546 1211 z "},"ů":{"ha":833,"x_min":42,"x_max":861,"o":"m 42 0 m 861 75 l 657 -22 l 579 -1 l 554 79 l 536 175 l 290 -21 l 146 29 l 104 193 l 100 621 l 42 646 l 46 679 l 294 685 l 288 635 l 215 606 l 215 214 l 267 90 l 357 140 l 525 233 l 547 619 l 486 647 l 490 685 l 710 685 l 717 638 l 644 610 l 640 94 l 661 60 l 800 181 l 861 75 m 364 886 l 351 806 l 386 765 l 442 778 l 467 851 l 428 894 l 364 886 m 465 949 l 524 883 l 513 753 l 385 694 l 293 760 l 281 858 l 335 944 l 465 949 z "},"ș":{"ha":657,"x_min":42,"x_max":615,"o":"m 42 0 m 344 725 l 500 661 l 556 715 l 615 674 l 510 532 l 460 579 l 232 633 l 158 547 l 254 413 l 533 343 l 572 107 l 389 -7 l 144 49 l 111 -8 l 42 4 l 89 150 l 372 83 l 460 149 l 426 265 l 129 367 l 49 532 l 115 686 l 344 725 m 338 -26 l 408 -86 l 369 -190 l 286 -293 l 249 -283 l 328 -169 l 272 -160 l 258 -61 l 338 -26 z "},"Ș":{"ha":803,"x_min":35,"x_max":768,"o":"m 35 0 m 568 978 l 656 918 l 694 972 l 768 914 l 638 757 l 585 806 l 518 892 l 310 858 l 200 747 l 285 590 l 644 496 l 729 392 l 704 121 l 417 -12 l 163 57 l 119 -12 l 35 7 l 119 193 l 190 172 l 410 101 l 626 188 l 585 403 l 158 490 l 79 781 l 226 953 l 568 978 m 421 -40 l 492 -100 l 453 -204 l 369 -307 l 332 -297 l 411 -183 l 356 -174 l 342 -75 l 421 -40 z "},"Ţ":{"ha":799,"x_min":28,"x_max":771,"o":"m 771 972 l 743 806 l 674 819 l 667 869 l 472 869 l 496 72 l 561 50 l 571 -4 l 265 0 l 261 39 l 354 74 l 343 872 l 275 874 l 133 858 l 128 801 l 47 793 l 28 972 l 233 964 l 771 972 m 421 -42 l 492 -101 l 453 -206 l 369 -308 l 332 -299 l 411 -185 l 356 -175 l 342 -76 l 421 -42 z "},"ţ":{"ha":521,"x_min":25,"x_max":492,"o":"m 25 0 m 492 43 l 264 0 l 156 107 l 156 250 l 156 608 l 89 597 l 35 585 l 25 651 l 124 683 l 143 683 l 143 814 l 124 858 l 242 858 l 253 738 l 253 693 l 447 717 l 447 608 l 253 618 l 253 161 l 318 88 l 492 119 l 492 43 m 297 -26 l 368 -86 l 329 -190 l 246 -293 l 208 -283 l 288 -169 l 232 -160 l 218 -61 l 297 -26 z "},"ŗ":{"ha":576,"x_min":69,"x_max":549,"o":"m 69 0 m 549 572 l 464 500 l 390 607 l 278 569 l 244 496 l 250 79 l 332 53 l 324 4 l 78 4 l 74 42 l 139 68 l 138 624 l 69 663 l 129 739 l 231 674 l 239 626 l 310 654 l 450 689 l 549 572 m 210 -40 l 281 -100 l 242 -204 l 158 -307 l 121 -297 l 200 -183 l 144 -174 l 131 -75 l 210 -40 z "},"Į":{"ha":392,"x_min":42,"x_max":350,"o":"m 42 0 m 335 28 l 338 -14 l 72 7 l 71 47 l 167 78 l 143 910 l 42 944 l 44 982 l 342 985 l 350 935 l 257 907 l 253 58 l 335 28 m 210 14 l 336 14 l 336 0 l 182 -69 l 140 -125 l 139 -174 l 210 -208 l 293 -194 l 293 -264 l 176 -276 l 72 -224 l 51 -125 l 126 -28 l 210 0 l 210 14 z "},"Ė":{"ha":869,"x_min":28,"x_max":800,"o":"m 28 0 m 800 -17 l 78 -7 l 71 40 l 210 65 l 163 893 l 39 936 l 28 985 l 775 967 l 776 788 l 706 790 l 685 878 l 308 879 l 282 844 l 289 546 l 717 517 l 704 456 l 293 447 l 289 332 l 360 96 l 711 82 l 728 194 l 799 203 l 800 -17 m 406 1047 l 358 1142 l 415 1196 l 504 1185 l 511 1092 l 406 1047 z "},"Ģ":{"ha":818,"x_min":42,"x_max":749,"o":"m 42 0 m 461 354 l 688 326 l 683 3 l 208 -1 l 42 217 l 210 885 l 439 974 l 626 975 l 749 906 l 599 643 l 535 656 l 611 844 l 506 868 l 279 782 l 175 203 l 282 115 l 507 83 l 578 157 l 572 268 l 476 289 l 461 354 m 418 -26 l 489 -86 l 450 -190 l 367 -293 l 329 -283 l 408 -169 l 353 -160 l 339 -61 l 418 -26 z "},"Ķ":{"ha":879,"x_min":42,"x_max":879,"o":"m 42 0 m 879 68 l 794 -43 l 613 65 l 513 376 l 396 468 l 276 431 l 272 68 l 367 49 l 375 -6 l 69 0 l 65 38 l 158 65 l 158 892 l 42 933 l 49 974 l 358 974 l 365 922 l 281 899 l 283 897 l 276 524 l 417 563 l 510 633 l 592 940 l 760 974 l 782 890 l 683 871 l 557 558 l 506 519 l 592 475 l 697 150 l 879 68 m 490 1 l 561 -58 l 522 -162 l 439 -265 l 401 -256 l 481 -142 l 425 -132 l 411 -33 l 490 1 z "},"Ļ":{"ha":665,"x_min":42,"x_max":638,"o":"m 42 0 m 629 10 l 79 -32 l 76 -3 l 153 44 l 129 903 l 42 932 l 47 969 l 351 971 l 358 921 l 276 896 l 274 60 l 528 114 l 510 207 l 636 222 l 638 135 l 629 10 m 383 -40 l 454 -100 l 415 -204 l 332 -307 l 294 -297 l 374 -183 l 318 -174 l 304 -75 l 383 -40 z "},"Ņ":{"ha":1018,"x_min":42,"x_max":976,"o":"m 42 0 m 939 49 l 946 -1 l 654 4 l 650 39 l 719 67 l 251 765 l 258 68 l 329 44 l 335 -7 l 44 -1 l 42 33 l 156 78 l 146 903 l 56 928 l 57 968 l 358 971 l 364 931 l 285 907 l 753 192 l 767 908 l 668 933 l 669 974 l 969 975 l 976 938 l 883 908 l 838 81 l 939 49 m 518 29 l 589 -31 l 550 -135 l 467 -237 l 429 -228 l 508 -114 l 453 -104 l 439 -6 l 518 29 z "},"Ų":{"ha":967,"x_min":42,"x_max":925,"o":"m 42 0 m 919 935 l 843 908 l 817 165 l 676 0 l 321 -14 l 158 161 l 126 853 l 119 911 l 42 932 l 43 972 l 336 975 l 340 935 l 249 907 l 253 239 l 340 99 l 628 108 l 713 229 l 701 917 l 636 938 l 638 975 l 925 985 l 919 935 m 521 14 l 647 14 l 647 0 l 493 -69 l 451 -125 l 450 -174 l 521 -208 l 604 -194 l 604 -264 l 488 -276 l 383 -224 l 363 -125 l 438 -28 l 521 0 l 521 14 z "},"į":{"ha":386,"x_min":42,"x_max":358,"o":"m 42 0 m 358 -18 l 81 -21 l 74 19 l 147 49 l 153 636 l 51 671 l 42 706 l 331 722 l 344 694 l 260 647 l 254 50 l 353 21 l 358 -18 m 168 811 l 121 906 l 178 960 l 267 949 l 274 856 l 168 811 m 215 14 l 342 14 l 342 0 l 188 -69 l 146 -125 l 144 -174 l 215 -208 l 299 -194 l 299 -264 l 182 -276 l 78 -224 l 57 -125 l 132 -28 l 215 0 l 215 14 z "},"ė":{"ha":701,"x_min":69,"x_max":632,"o":"m 69 0 m 189 372 l 514 424 l 475 606 l 382 640 l 200 579 l 188 367 l 189 372 m 471 699 l 582 601 l 622 363 l 188 293 l 263 72 l 426 76 l 621 135 l 632 25 l 240 -31 l 69 222 l 89 579 l 275 714 l 471 699 m 335 771 l 288 865 l 344 919 l 433 908 l 440 815 l 335 771 z "},"ģ":{"ha":707,"x_min":56,"x_max":665,"o":"m 56 0 m 164 469 l 268 326 l 468 293 l 554 457 l 503 585 l 306 615 l 210 571 l 164 469 m 200 260 l 172 104 l 461 89 l 557 79 l 621 -115 l 129 -239 l 56 -65 l 153 -87 l 160 -164 l 511 -44 l 490 -1 l 101 44 l 64 142 l 122 324 l 71 386 l 75 542 l 214 685 l 443 689 l 469 668 l 650 786 l 665 721 l 536 621 l 568 597 l 661 482 l 557 217 l 251 221 l 200 260 m 353 731 l 282 790 l 321 894 l 404 997 l 442 987 l 363 874 l 418 864 l 432 765 l 353 731 z "},"ķ":{"ha":703,"x_min":69,"x_max":703,"o":"m 69 0 m 703 50 l 646 -40 l 529 32 l 336 340 l 275 310 l 275 57 l 381 26 l 389 -12 l 113 -19 l 107 22 l 174 50 l 146 919 l 69 940 l 72 978 l 371 985 l 367 931 l 272 910 l 275 381 l 331 401 l 443 550 l 538 724 l 618 699 l 513 500 l 415 369 l 613 107 l 703 50 m 429 -12 l 500 -72 l 461 -176 l 378 -279 l 340 -269 l 419 -156 l 364 -146 l 350 -47 l 429 -12 z "},"ļ":{"ha":408,"x_min":69,"x_max":367,"o":"m 69 0 m 367 1 l 74 7 l 69 43 l 169 72 l 169 906 l 96 890 l 101 982 l 278 986 l 265 74 l 360 54 l 367 1 m 226 -26 l 297 -86 l 258 -190 l 175 -293 l 138 -283 l 217 -169 l 161 -160 l 147 -61 l 226 -26 z "},"ņ":{"ha":886,"x_min":61,"x_max":904,"o":"m 61 0 m 904 99 l 672 -18 l 589 25 l 589 447 l 546 574 l 440 585 l 281 353 l 281 68 l 356 46 l 344 -7 l 92 4 l 81 35 l 154 68 l 154 574 l 61 626 l 133 722 l 261 585 l 281 457 l 419 679 l 599 669 l 704 479 l 682 108 l 704 89 l 831 183 l 904 99 m 479 15 l 550 -44 l 511 -149 l 428 -251 l 390 -242 l 469 -128 l 414 -118 l 400 -19 l 479 15 z "},"ų":{"ha":833,"x_min":42,"x_max":861,"o":"m 42 0 m 861 75 l 657 -22 l 579 -1 l 554 79 l 536 175 l 290 -21 l 146 29 l 104 193 l 100 621 l 42 646 l 46 679 l 294 685 l 288 635 l 215 606 l 215 214 l 267 90 l 357 140 l 525 233 l 547 619 l 486 647 l 490 685 l 710 685 l 717 638 l 644 610 l 640 94 l 661 60 l 800 181 l 861 75 m 731 97 l 857 97 l 857 83 l 703 14 l 661 -42 l 660 -90 l 731 -125 l 814 -111 l 814 -181 l 697 -193 l 593 -140 l 572 -42 l 647 56 l 731 83 l 731 97 z "},"Ŗ":{"ha":990,"x_min":42,"x_max":990,"o":"m 42 0 m 708 664 l 658 843 l 454 879 l 311 857 l 335 549 l 585 532 l 708 664 m 990 171 l 818 17 l 710 35 l 636 361 l 506 457 l 325 431 l 329 86 l 417 57 l 428 4 l 129 8 l 126 46 l 208 78 l 192 813 l 142 867 l 42 878 l 46 953 l 160 956 l 218 932 l 253 963 l 631 957 l 806 796 l 781 564 l 660 472 l 763 374 l 772 124 l 803 113 l 903 263 l 990 171 m 546 43 l 617 -17 l 578 -121 l 494 -224 l 457 -214 l 536 -100 l 481 -90 l 467 8 l 546 43 z "},"İ":{"ha":392,"x_min":42,"x_max":350,"o":"m 42 0 m 335 28 l 338 -14 l 72 7 l 71 47 l 167 78 l 143 910 l 42 944 l 44 982 l 342 985 l 350 935 l 257 907 l 253 58 l 335 28 m 167 1033 l 119 1128 l 176 1182 l 265 1171 l 272 1078 l 167 1033 z "},"Ĩ":{"ha":392,"x_min":3,"x_max":389,"o":"m 3 0 m 335 28 l 338 -14 l 72 7 l 71 47 l 167 78 l 143 910 l 42 944 l 44 982 l 342 985 l 350 935 l 257 907 l 253 58 l 335 28 m 3 1103 l 67 1224 l 169 1242 l 257 1147 l 290 1160 l 304 1231 l 389 1233 l 368 1144 l 311 1082 l 229 1069 l 138 1169 l 108 1157 l 99 1090 l 3 1103 z "},"ĩ":{"ha":386,"x_min":-6,"x_max":381,"o":"m 0 0 m 358 -18 l 81 -21 l 74 19 l 147 49 l 153 636 l 51 671 l 42 706 l 331 722 l 344 694 l 260 647 l 254 50 l 353 21 l 358 -18 m -6 839 l 58 960 l 161 978 l 249 883 l 282 896 l 296 967 l 381 969 l 360 881 l 303 818 l 221 806 l 129 906 l 100 893 l 90 826 l -6 839 z "},"ĳ":{"ha":758,"x_min":42,"x_max":731,"o":"m 42 0 m 358 -18 l 81 -21 l 74 19 l 147 49 l 153 636 l 51 671 l 42 706 l 331 722 l 344 694 l 260 647 l 254 50 l 353 21 l 358 -18 m 168 811 l 121 906 l 178 960 l 267 949 l 274 856 l 168 811 m 639 636 l 628 11 l 560 -143 l 282 -249 l 275 -150 l 486 -89 l 526 90 l 519 640 l 446 664 l 436 700 l 719 715 l 731 686 l 639 636 m 575 804 l 501 878 l 526 971 l 615 971 l 656 913 l 575 804 z "},"Ĵ":{"ha":653,"x_min":0,"x_max":674,"o":"m 0 0 m 529 901 l 514 149 l 453 -99 l 250 -210 l 57 -117 l 0 82 l 114 119 l 156 -94 l 238 -99 l 367 -7 l 408 207 l 400 907 l 293 943 l 297 985 l 604 986 l 611 935 l 529 901 m 438 1269 l 674 1067 l 604 1068 l 549 1071 l 442 1179 l 354 1064 l 289 1068 l 229 1079 l 436 1271 l 438 1271 l 438 1269 z "},"ĵ":{"ha":386,"x_min":-97,"x_max":429,"o":"m 267 636 l 256 11 l 188 -143 l -90 -249 l -97 -150 l 114 -89 l 154 90 l 147 640 l 74 664 l 64 700 l 347 715 l 358 686 l 267 636 m 193 978 l 429 775 l 360 776 l 304 779 l 197 888 l 110 772 l 44 776 l -15 788 l 192 979 l 193 979 l 193 978 z "},"ŀ":{"ha":547,"x_min":69,"x_max":518,"o":"m 69 1 m 367 1 l 74 7 l 69 43 l 169 72 l 169 906 l 96 890 l 101 982 l 278 986 l 265 74 l 360 54 l 367 1 m 408 565 l 515 538 l 518 411 l 397 385 l 339 489 l 408 565 z "}," ":{"ha":444,"x_min":0,"x_max":0,"o":"z "},"ħ":{"ha":815,"x_min":63,"x_max":843,"o":"m 157 803 l 160 876 l 69 956 l 174 1026 l 264 883 l 261 801 l 274 801 l 507 799 l 499 690 l 317 696 l 258 696 l 249 392 l 394 589 l 578 535 l 663 378 l 643 61 l 672 42 l 768 194 l 843 129 l 681 -37 l 564 14 l 549 374 l 453 481 l 256 299 l 256 64 l 357 33 l 365 -7 l 94 -8 l 86 33 l 139 54 l 154 696 l 69 696 l 63 806 l 157 803 z "},"ĸ":{"ha":688,"x_min":42,"x_max":688,"o":"m 688 63 l 629 -28 l 513 43 l 325 347 l 222 315 l 219 69 l 324 38 l 332 0 l 57 -7 l 49 33 l 118 63 l 117 644 l 42 668 l 44 703 l 325 707 l 317 656 l 222 636 l 222 386 l 321 407 l 429 553 l 521 724 l 600 699 l 497 504 l 401 376 l 593 117 l 688 63 z "},"ß":{"ha":833,"x_min":42,"x_max":826,"o":"m 251 824 l 274 72 l 354 71 l 376 4 l 103 8 l 96 54 l 163 64 l 150 531 l 151 585 l 42 597 l 46 647 l 143 674 l 144 853 l 282 1001 l 500 972 l 507 971 l 639 792 l 556 628 l 556 592 l 786 413 l 826 176 l 642 -7 l 533 35 l 500 -22 l 431 -10 l 479 142 l 611 93 l 714 218 l 679 376 l 431 550 l 431 621 l 515 776 l 435 896 l 319 914 l 251 824 z "},"a":{"ha":721,"x_min":69,"x_max":693,"o":"m 343 360 l 188 256 l 183 100 l 239 71 q 290 74 267 72 q 326 77 310 75 q 342 82 342 79 q 347 90 342 82 q 362 112 353 99 q 382 141 371 125 q 406 174 393 157 q 471 263 433 213 l 461 364 l 343 360 m 254 735 l 568 661 l 574 90 l 692 82 l 693 18 l 521 1 l 463 124 l 390 10 l 156 -35 l 69 69 l 75 281 l 313 435 l 460 454 l 471 606 l 239 636 l 171 518 l 94 599 l 108 633 l 254 735 z "},"B":{"ha":836,"x_min":42,"x_max":767,"o":"m 656 228 l 649 360 l 519 478 l 325 442 l 303 424 l 294 124 l 328 97 l 525 106 l 656 228 m 289 856 l 300 571 l 315 543 l 513 586 l 631 690 l 543 876 l 342 874 l 289 856 m 767 214 l 597 0 l 199 8 l 199 8 l 49 10 l 42 56 l 197 82 l 174 881 l 54 921 l 44 967 l 204 967 l 206 967 l 400 972 l 619 944 l 738 664 l 600 518 l 707 444 l 767 214 z "}}}
